<?xml version="1.0" standalone="no"?>
<!DOCTYPE svg PUBLIC "-//W3C//DTD SVG 1.1//EN" "http://www.w3.org/Graphics/SVG/1.1/DTD/svg11.dtd" >
<svg xmlns="http://www.w3.org/2000/svg">
<metadata></metadata>
<defs>
<font id="shmulik_clmmedium" horiz-adv-x="0" >
<font-face units-per-em="2048" ascent="1638" descent="-410" />
<missing-glyph horiz-adv-x="650" />
<glyph horiz-adv-x="814" d="M20 0v1044h774v-1044h-774zM92 66h630v900h-630v-900zM192 476v8q0 36 22 87t45 74l85 40l-12 -24t-15 -31t-12.5 -29t-11 -31.5t-3.5 -24.5v-5q0 -63 40 -110.5t92 -47.5h5q33 0 58.5 30.5t25.5 55.5q0 42 -2.5 72t-14 66t-31.5 58.5t-57.5 38t-89.5 15.5l64 83 q57 0 102 -21t70.5 -55t38.5 -72t13 -77q0 -91 -85 -185.5t-173 -94.5q-53 0 -97 54.5t-57 125.5z" />
<glyph horiz-adv-x="814" d="M20 0v1044h774v-1044h-774zM92 66h630v900h-630v-900zM192 476v8q0 36 22 87t45 74l85 40l-12 -24t-15 -31t-12.5 -29t-11 -31.5t-3.5 -24.5v-5q0 -63 40 -110.5t92 -47.5h5q33 0 58.5 30.5t25.5 55.5q0 42 -2.5 72t-14 66t-31.5 58.5t-57.5 38t-89.5 15.5l64 83 q57 0 102 -21t70.5 -55t38.5 -72t13 -77q0 -91 -85 -185.5t-173 -94.5q-53 0 -97 54.5t-57 125.5z" />
<glyph unicode="&#xd;" horiz-adv-x="682" />
<glyph unicode=" "  horiz-adv-x="650" />
<glyph unicode="&#x09;" horiz-adv-x="650" />
<glyph unicode="&#xa0;" horiz-adv-x="650" />
<glyph unicode="!" horiz-adv-x="500" d="M139 96q0 66 36.5 111t90.5 45q37 0 70 -33.5t33 -89.5q0 -62 -34.5 -104.5t-92.5 -42.5q-35 0 -69 30t-34 84zM139 516v570q0 15 5.5 36t13.5 29l162 162q11 14 28 14q8 0 11.5 -5t6 -30.5t2.5 -80.5v-591q0 -30 -11 -41l-168 -164q-12 -15 -28 -15q-9 0 -12.5 4.5 t-6.5 30.5t-3 81z" />
<glyph unicode="&#x22;" horiz-adv-x="693" d="M124 936v252q0 6 2.5 12.5t5.5 10t8.5 9.5t7.5 8l116 146q15 15 28 15q5 0 7.5 -2t5 -13t3 -34.5t0.5 -66.5v-253q0 -6 -2.5 -12.5t-5.5 -10t-8.5 -9.5t-7.5 -8l-116 -146q-14 -14 -27 -14q-6 0 -9.5 5.5t-5.5 31.5t-2 79zM400 936v252q0 6 2.5 12.5t5.5 10t8.5 9.5 t7.5 8l116 146q15 15 28 15q6 0 8 -2t4.5 -13t3 -34t0.5 -67v-253q0 -6 -2.5 -12.5t-5 -10t-8.5 -9.5t-7 -8l-116 -146q-14 -14 -28 -14q-6 0 -9.5 5.5t-5.5 31.5t-2 79z" />
<glyph unicode="#" horiz-adv-x="1370" d="M54 418q0 11 15 23l139 104q20 16 39 16h172v205h-225q-44 0 -65 0.5t-33 2.5t-13.5 4t-1.5 8q0 8 16 24l139 103q27 17 39 17h144v149q0 19 16 39l104 139q16 16 24 16q5 0 7 -2t4 -13t2.5 -33.5t0.5 -64.5v-229h183v159q0 21 18 39l104 140q11 14 24 14q5 0 7 -2 t4 -12.5t2.5 -33t0.5 -64.5v-241h273q40 0 62.5 -0.5t33.5 -2t13.5 -3.5t2.5 -6v-4q0 -12 -14 -23l-140 -104q-21 -16 -39 -16h-192v-205h245q41 0 63 -0.5t33.5 -2t14 -3t2.5 -5.5v-3q0 -13 -15 -23l-140 -102q-23 -19 -39 -19h-164v-155q0 -16 -19 -39l-102 -140 q-15 -15 -23 -15h-3q-5 0 -7.5 5.5t-4 30.5t-1.5 77v236h-183v-166q0 -21 -18 -39l-103 -140q-9 -14 -23 -14h-3q-4 0 -5.5 2.5t-3 14t-2 33t-0.5 62.5v247h-253q-41 0 -64 0.5t-33.5 3t-12.5 4.5t-2 7zM577 561h183v205h-183v-205z" />
<glyph unicode="$" horiz-adv-x="1123" d="M65 164l218 214q33 0 44 -24l11 -28q15 -43 31.5 -70t34.5 -38.5t31 -14.5t32 -3v389q-188 57 -228 73q-115 46 -145 113q-14 31 -14 71q0 69 24 129t59 102.5t90.5 82.5t103 64.5t110.5 52.5v96q0 45 46.5 79.5t86.5 34.5q32 0 32 -21v-144q18 0 45.5 3.5t40.5 3.5 q61 0 107.5 -9.5t70.5 -21t41.5 -31t21.5 -29t9 -25.5q1 -4 2 -6q4 -14 4 -20l-195 -136q-29 0 -48 19l-13 16q-10 12 -22 28t-18 22.5t-18 16.5t-29 19v-380q193 -56 325 -114q31 -25 49.5 -44t35 -53t16.5 -74q0 -68 -44.5 -142.5t-113 -136.5t-137 -110.5t-131.5 -79.5 v-114q0 -42 -43 -75t-82 -33t-39 16v163h-27h-94q-33 0 -78.5 10.5t-92 30t-78.5 53.5t-32 75zM329 980q0 -56 38 -109.5t100 -53.5v355q-53 0 -95.5 -59.5t-42.5 -132.5zM631 187q76 20 112 55t36 114q0 66 -39 113t-109 57v-339z" />
<glyph unicode="%" horiz-adv-x="1861" d="M79 764v14q0 180 212 310q22 14 28 8.5t4 -16.5t-8 -22q-27 -52 -36 -83t-9 -79v-9q0 -114 62 -201t149 -87h7q56 0 92.5 54.5t36.5 100.5q0 77 -34 173t-91.5 167t-113.5 71q-10 0 -24 -5t-22 -10l-9 -5q-7 -7 -28 -7q-35 0 -35 20q0 15 31 46q55 60 97.5 82.5 t122.5 22.5q79 0 146.5 -57t104 -142t36.5 -171q0 -102 -68 -215.5t-174 -190.5t-206 -77q-95 0 -173 93.5t-98 214.5zM439 65q0 24 12 40l850 1150q20 30 52 30q26 0 45 -17.5t19 -42.5q0 -23 -13 -42l-849 -1153q-19 -27 -54 -27q-26 0 -44 18t-18 44zM1063 336v17 q0 179 213 309q29 19 32 2t-9 -33q-26 -52 -34 -82t-8 -78v-9q0 -115 60.5 -202.5t147.5 -87.5h10q55 0 91 54.5t36 100.5q0 77 -33.5 173.5t-90.5 168t-114 71.5q-10 0 -24.5 -6t-23.5 -12l-10 -5q-5 -5 -25 -5q-35 0 -35 20q0 12 30 45q55 61 97.5 84t120.5 23 q79 0 147 -57.5t105.5 -142.5t37.5 -171q0 -102 -68 -215.5t-174 -190.5t-206 -77q-94 0 -172.5 92.5t-100.5 213.5z" />
<glyph unicode="&#x26;" horiz-adv-x="1475" d="M92 293q0 77 48 141t140 128l30 22l-40 22q-21 12 -29 17t-35 23.5t-42 35.5t-34.5 41.5t-28.5 54.5t-9 62q0 47 28.5 95.5t66 84t81 67t68 45.5t32.5 18l112 49q107 37 190 37q65 0 112 -8t69.5 -18t35 -24.5t14.5 -22t2 -15.5v-15q-8 -16 -38 -44t-70 -63t-54 -48 q-30 0 -46 28l-12 18q-30 43 -72 57.5t-122 14.5q-23 0 -49.5 -7.5t-55.5 -23.5t-47.5 -48.5t-18.5 -75.5q0 -16 3.5 -33.5t14 -43t36.5 -47t64 -32.5q52 -15 92.5 -18.5t147.5 -3.5h199v14l212 171q27 0 27 -28v-156h271q47 0 47 -24l-148 -138q-51 -18 -105 -18h-76v-51 q0 -61 -4.5 -99.5t-21.5 -88.5t-55 -99t-100 -105q-98 -87 -190.5 -122.5t-192.5 -35.5q-56 0 -128.5 18.5t-145.5 54t-123 98t-50 139.5zM320 413q0 -68 57.5 -122t130.5 -78.5t138 -24.5h65q78 9 116.5 34.5t38.5 83.5v278h-220q-182 0 -254 -35.5t-72 -135.5z" />
<glyph unicode="'" horiz-adv-x="417" d="M124 936v252q0 8 3.5 14.5t12 15.5t9.5 10l116 146q14 15 28 15q5 0 7.5 -2t5 -13t3 -34.5t0.5 -66.5v-253q0 -6 -2.5 -12.5t-5.5 -10t-8.5 -9.5t-7.5 -8l-116 -146q-14 -14 -28 -14q-6 0 -9 5t-5.5 31.5t-2.5 79.5z" />
<glyph unicode="(" horiz-adv-x="564" d="M114 582q0 213 32 355t110 297q32 76 99.5 132t111.5 56q27 0 27 -31q0 -15 -11 -48l-33 -65q-68 -137 -97.5 -259t-29.5 -312q0 -120 15.5 -222t46.5 -185t51 -124t56 -104q6 -11 9 -16q26 -35 26 -75q-2 0 -67 -75.5t-71 -75.5q-45 0 -73 42l-16 24 q-112 178 -149 332.5t-37 353.5z" />
<glyph unicode=")" horiz-adv-x="576" d="M51 1271l139 151q45 0 73 -42l15 -24q112 -178 149 -332.5t37 -353.5q0 -214 -32 -359.5t-110 -300.5q-32 -75 -98 -127.5t-110 -52.5q-30 0 -30 31q0 12 12 48l32 65q69 138 98.5 260t29.5 311q0 134 -21 249t-51 188t-60.5 129t-51.5 96t-21 64z" />
<glyph unicode="*" horiz-adv-x="775" d="M102 501q0 49 18.5 100t35.5 51q3 -2 5 -2l34 -28q64 -52 116 -68q-51 82 -51 144v22q0 27 53.5 44.5t107.5 17.5q52 0 52 -18v-3l-17 -42q-27 -72 -27 -135q24 26 34 36.5t32 26t48 26.5l20 9q3 2 15 2q36 0 75 -60.5t39 -100.5q0 -22 -17 -22h-81q-38 0 -97 -16 q79 -36 130 -95l15 -16q6 -12 6 -19q0 -35 -52 -78t-88 -43q-22 0 -25 17l-10 44q-12 43 -54 97q0 -76 -42 -146l-13 -20q-9 -10 -28 -10q-45 0 -110 34t-65 57q0 8 7 11l37 26q63 41 102 92q-62 -11 -77 -11q-46 0 -74 6l-23 3q-31 10 -31 67z" />
<glyph unicode="+" horiz-adv-x="924" d="M87 522q0 32 13 55t36 23h256v259q0 23 22.5 36t54.5 13t55 -13t23 -36v-259h258q23 0 35.5 -23t12.5 -55q0 -31 -12.5 -54t-35.5 -23h-257v-253q0 -23 -23.5 -36.5t-55.5 -13.5q-31 0 -54 13.5t-23 36.5v253h-256q-23 0 -36 23t-13 54z" />
<glyph unicode="," horiz-adv-x="436" d="M109 -202q0 19 22 41l129 146q15 15 30 15q6 0 9 -2t5.5 -13.5t3 -35t0.5 -66.5v-166q0 -18 -22 -40l-129 -146q-15 -15 -30 -15h-4q-4 0 -6.5 2.5t-4.5 14t-2.5 35t-0.5 64.5v166z" />
<glyph unicode="-" horiz-adv-x="1056" d="M93.5 417.5q-4.5 17.5 18.5 38.5l154 155q1 1 10.5 8t12.5 8.5t11 4t17 2.5h619q27 0 31.5 -17t-18.5 -38l-155 -155q-2 -1 -10.5 -8t-11.5 -9t-11 -4.5t-17 -2.5h-619q-27 0 -31.5 17.5z" />
<glyph unicode="." horiz-adv-x="429" d="M83 -112q0 62 44.5 114t103.5 52q47 0 75 -34t28 -81q0 -65 -47 -114.5t-102 -49.5q-47 0 -74.5 32.5t-27.5 80.5z" />
<glyph unicode="/" horiz-adv-x="1055" d="M42 129q0 19 11 35l787 1124q19 26 51 26q40 0 78.5 -33t38.5 -70q0 -17 -11 -33l-787 -1124q-19 -26 -52 -26q-38 0 -77 33t-39 68z" />
<glyph unicode="0" horiz-adv-x="1207" d="M85 450v22q0 90 55 216t111 186l214 100q-6 -13 -31 -61.5t-38.5 -77.5t-31.5 -72t-27 -77.5t-9 -61.5v-13q0 -157 101 -276t229 -119h13q82 0 146 77t64 139q0 73 -3 128t-14.5 123.5t-31.5 118t-56.5 100t-87 82t-125.5 51.5t-170 20l160 208q116 0 212 -35t159.5 -92 t107.5 -131.5t63 -151t19 -152.5q0 -87 -37.5 -186.5t-103.5 -189t-146.5 -163.5t-175 -118t-181.5 -44q-89 0 -172.5 66.5t-138 168.5t-74.5 215z" />
<glyph unicode="1" horiz-adv-x="570" d="M50 915q0 12 50 58.5t140 123t134 116.5q5 5 8.5 8t6.5 5.5t4.5 3.5t3.5 1.5t2.5 0.5h3h3.5q24 0 24 -32v-1015q0 -8 -5.5 -15.5t-15 -15t-12.5 -10.5l-169 -164q-12 -15 -27 -15q-5 0 -6 2t-1 13v894v2v5v5.5t-1 6t-2 5.5t-3 5t-5 3t-7.5 0t-9.5 -3l-56 -20h-3 q-14 0 -35.5 13.5t-21.5 18.5z" />
<glyph unicode="2" horiz-adv-x="959" d="M39 62q0 13 18 31l12 17q30 38 101 97.5l142 119t140.5 128.5t113 149.5t43.5 158.5v21q0 58 -14 100.5t-35 65.5t-53.5 36t-59.5 16.5t-63 3.5q-35 0 -71.5 -12.5t-60.5 -28t-46 -28t-32 -12.5q-26 0 -48 23.5t-22 51.5q0 18 11 32l14 18q36 59 150.5 126.5t220.5 67.5 q71 0 128 -21t94 -54.5t61.5 -78t35 -88.5t10.5 -88v-8q0 -69 -16.5 -124t-57.5 -112.5t-84 -106.5t-123.5 -140t-148.5 -179h513l-161 -244h-540q-45 0 -108.5 21t-63.5 41z" />
<glyph unicode="3" horiz-adv-x="831" d="M44 1010q0 31 36 61l30 24q30 24 40.5 31.5t41 29t50.5 31t49.5 22.5t58 18.5t56.5 5.5q116 0 196 -64t80 -163q0 -47 -18.5 -90t-45 -72t-53 -52t-45 -40t-18.5 -27q0 -6 6.5 -9t19 -5.5t13.5 -2.5q103 -24 158 -90.5t55 -170.5q0 -67 -26.5 -126t-64 -99t-97.5 -79.5 t-108.5 -63t-115.5 -56t-101 -51.5q-29 -14 -55 -14q-32 0 -32 20q0 30 52 54q147 85 204 131q112 89 112 168v21q0 40 -13 72.5t-38.5 54.5t-54 37.5t-69 26t-72.5 16.5t-75 11q-35 0 -54.5 9.5t-19.5 23.5q0 32 69 59q221 97 243 219v9q0 62 -57 110.5t-128 48.5 q-27 0 -102 -31.5t-82 -31.5q-25 0 -25 24z" />
<glyph unicode="4" horiz-adv-x="1153" d="M75 460q0 66 47.5 161.5t112 183t141 176.5t123.5 137.5t71 71.5q13 10 28 10q23 0 40.5 -20t17.5 -46q0 -23 -35.5 -63.5t-86 -89t-101.5 -102t-86.5 -116.5t-35.5 -119q0 -30 25.5 -49t74.5 -27.5t95.5 -11.5t114.5 -3v165q0 5 1.5 10.5t2.5 8.5t4.5 8.5t5 7t6 7 t5.5 6.5l129 174q16 19 30 19q7 0 9.5 -2t5 -16.5t3 -41.5t0.5 -80v-264l255 61h5q22 0 22 -28q-3 -14 -24 -43t-58 -74.5t-52 -66.5q-14 -10 -29 -16.5t-34 -10.5t-30 -6t-32.5 -3.5t-27.5 -2.5v-160q0 -6 -1 -11t-2.5 -8.5t-5 -8.5t-5 -7t-6 -6.5t-5.5 -6.5l-128 -175 q-15 -18 -30 -18h-4q-7 0 -8.5 19.5t-1.5 120.5v243h-345q-42 0 -71 3t-62 13.5t-50.5 34.5t-17.5 62z" />
<glyph unicode="5" horiz-adv-x="1013" d="M53 752l329 489h560q27 0 31.5 -17t-18.5 -38l-155 -155q-2 -2 -10.5 -8.5t-11.5 -8.5t-10.5 -4.5t-16.5 -2.5h-296q-23 0 -61 -45t-38 -64q0 -25 36 -25q63 -16 125 -54t113 -91t82.5 -123.5t31.5 -144.5t-34.5 -144.5t-89 -123t-120 -97.5t-129.5 -73.5t-115 -44 t-79 -15.5q-33 0 -51.5 10.5t-18.5 27.5q0 29 55 54q33 17 45 23t51.5 27.5t59.5 35t52 37.5t48.5 43.5t29.5 44t13 47.5q0 45 -7 82.5t-17 64.5t-30 52t-37.5 40.5t-47.5 34t-51.5 29.5t-59.5 30t-62 32l-22 13q-74 40 -74 62z" />
<glyph unicode="6" horiz-adv-x="1058" d="M85 418q0 77 26 158t68 150t95.5 136t109 121t107.5 98.5t91.5 75t60.5 45.5q10 7 13 9q20 11 37 11q25 0 42 -19t17 -44q0 -34 -30 -51q-12 -8 -37 -25q-45 -29 -68.5 -45.5t-65.5 -49t-65.5 -57.5t-54.5 -63.5t-47 -75.5t-28 -85.5t-12 -100.5q0 -55 22.5 -125t60 -134 t94.5 -108t118 -44q42 0 69 28t27 67q0 70 -27.5 136t-72 115.5t-85 83t-82.5 57.5l204 194q69 0 143 -66.5t119.5 -154t45.5 -152.5q0 -244 -141.5 -373.5t-378.5 -129.5q-145 0 -260 124.5t-115 293.5z" />
<glyph unicode="7" horiz-adv-x="901" d="M42 1003q-4 17 19 38l155 155q2 2 5.5 5t5.5 4.5t5 4t5.5 3.5t5.5 2.5t6.5 2.5t7.5 1.5t8 0.5h527q29 0 49 -16t20 -39q0 -14 -21 -48q-60 -98 -99.5 -164t-102 -181t-100.5 -199.5t-67 -179.5t-29 -161v-14q-7 -28 -95 -109t-154 -127q-46 0 -46 46q0 42 33 102l421 856 h-528q-27 0 -31 17z" />
<glyph unicode="8" horiz-adv-x="1033" d="M91 218q0 49 12 92.5t28 73.5t45.5 64t51.5 54t59.5 52.5t57.5 51.5q-46 17 -80 34t-78 46.5t-68.5 69.5t-24.5 88q0 62 72 146.5t151 142.5t118 71q5 0 29.5 -25t24.5 -36q0 -4 -2 -5q-54 -36 -94.5 -87.5t-40.5 -85.5q0 -68 66 -127.5t153 -73.5q8 11 28 34.5t31 38 t21 33.5t10 34q0 48 -59.5 87t-107.5 39q-9 0 -24.5 -4t-23.5 -4q-12 0 -20.5 7t-8.5 19l296 186q74 0 143 -50.5t69 -111.5q0 -119 -269 -332q33 -12 53 -19.5t52 -22t52.5 -27t44.5 -32t38 -40t23.5 -47.5t9.5 -58q0 -77 -39.5 -152t-104.5 -133t-145 -103t-165 -68.5 t-160 -23.5q-105 0 -164.5 55.5t-59.5 148.5zM349 394q0 -84 31.5 -138t102.5 -54q58 0 118 45.5t60 94.5q0 87 -72 157t-156 92q-84 -80 -84 -197z" />
<glyph unicode="9" horiz-adv-x="1082" d="M91 767q0 218 128.5 347t387.5 129q79 0 151 -40.5t121.5 -104t79 -143t29.5 -157.5q0 -93 -24.5 -180.5t-59 -153t-88.5 -129t-97 -102.5t-101.5 -80t-84.5 -56.5t-62 -35.5l-25 -13q-22 -7 -63.5 -13t-59.5 -6l46 135l19 13q8 6 36 25.5t42.5 29.5t43.5 32t46 37t43 39 t41.5 44t34 46.5t28.5 51.5t17 54t7 58q0 103 -36 206.5t-105.5 177t-153.5 73.5q-51 0 -74.5 -35.5t-23.5 -75.5q0 -55 25 -125.5t72 -126.5t99 -56q24 0 69 18l-19 -106q-13 -7 -44 -24.5t-48.5 -26t-45.5 -20t-56 -16.5t-59 -5q-57 0 -104.5 33t-75 83t-42 102t-14.5 97z " />
<glyph unicode=":" horiz-adv-x="649" d="M84 747q-5 17 18 38l155 155q2 2 8.5 7t9.5 7t8.5 5t11.5 4t13 1h215q27 0 31.5 -17t-18.5 -38l-155 -155q-3 -2 -9 -7t-9 -7t-8.5 -5t-11 -4t-12.5 -1h-215q-27 0 -32 17zM90 139.5q-4 17.5 19 38.5l155 154q2 2 5.5 5t5.5 4.5t5 4t5.5 3.5t5.5 2.5t6.5 2.5t7.5 1.5 t8 0.5h215q27 0 32 -17t-18 -38l-155 -155q-2 -2 -8.5 -7t-9.5 -7t-8.5 -5t-11.5 -4t-13 -1h-215q-27 0 -31 17.5z" />
<glyph unicode=";" horiz-adv-x="428" d="M90 276q0 66 44 111.5t96 45.5q44 0 70.5 -31t26.5 -76q0 -67 -43.5 -112t-96.5 -45q-45 0 -71 30t-26 77zM113 -178q0 19 22 41l129 145q15 15 30 15q6 0 9 -2t5.5 -13.5t3 -34.5t0.5 -66v-166q0 -18 -22 -40l-129 -146q-15 -15 -30 -15h-3q-5 0 -7 2.5t-4.5 14t-3 34.5 t-0.5 65v166z" />
<glyph unicode="&#x3c;" horiz-adv-x="1099" d="M72 455q0 80 30 93l874 382q1 0 3.5 1t3.5 1q30 0 30 -73q0 -37 -10 -70t-27 -39l-672 -290l668 -289q18 -6 27.5 -38.5t9.5 -70.5q0 -30 -7.5 -52t-20.5 -22q-1 0 -4.5 3t-4.5 3l-874 378q-26 13 -26 83z" />
<glyph unicode="=" horiz-adv-x="1220" d="M119 644q0 40 16.5 70t45.5 30h869q30 0 46 -29.5t16 -70.5q0 -40 -16 -70.5t-46 -30.5h-869q-28 0 -45 30.5t-17 70.5zM124 275q0 41 17 71.5t46 30.5h868q30 0 46 -30.5t16 -71.5t-16 -70.5t-46 -29.5h-868q-29 0 -46 30t-17 70z" />
<glyph unicode="&#x3e;" horiz-adv-x="1095" d="M86 859q0 73 28 73q1 0 4.5 -1t4.5 -1l872 -382q15 -6 23.5 -33.5t8.5 -59.5q0 -70 -26 -83l-874 -378q-1 0 -4.5 -3t-4.5 -3q-13 0 -20.5 22t-7.5 52q0 38 9.5 70.5t27.5 38.5l668 289l-672 290q-17 6 -27 39t-10 70z" />
<glyph unicode="?" horiz-adv-x="940" d="M39 1098q0 8 10 20l16 20q41 47 72 77t74.5 60t95 44.5t113.5 14.5q115 0 214 -45.5t162 -136t63 -208.5q0 -80 -25 -151t-67 -126t-85.5 -99.5t-92 -95.5t-74.5 -91l-17 -26q-9 -14 -20 -14q-3 0 -40.5 -3.5t-61.5 -3.5q-58 0 -58 17q0 6 14 34q22 41 58 85t68.5 78 t63 70.5t49 76.5t18.5 82q0 163 -81 267t-197 104q-56 0 -96.5 -13.5t-57.5 -29.5t-32.5 -29.5t-28.5 -13.5q-20 0 -38.5 10.5t-18.5 25.5zM225 -6q0 60 44.5 114.5t85.5 54.5q9 0 18 -3q47 0 75 -34t28 -81q0 -65 -46.5 -115t-101.5 -50q-39 0 -71 29t-32 85z" />
<glyph unicode="@" horiz-adv-x="1563" d="M100 677q0 190 97 348t261.5 248t357.5 90q134 0 251.5 -34.5t209 -100.5t144.5 -171t53 -236q0 -269 -160 -410q-158 -139 -325 -139q-40 0 -71.5 22.5t-31.5 74.5q-36 -38 -88.5 -67.5t-106.5 -29.5q-117 0 -200 91t-83 220q0 127 52 234.5t141.5 170t195.5 62.5 q142 0 211 -122l19 53q22 56 82 56q28 0 48 -13t20 -34v-9l-122 -505q0 -44 48 -44q36 0 74 21.5t71 61t54.5 105t21.5 143.5q0 214 -138.5 332t-371.5 118q-171 0 -295.5 -73.5t-185.5 -194t-61 -272.5q0 -242 151.5 -388t410.5 -146q95 0 166.5 16t111 38.5t69.5 45.5 t60.5 39t64.5 16q30 0 50 -11.5t20 -27.5q0 -9 -4 -13l-29 -35q-74 -87 -209 -152.5t-311 -65.5q-308 0 -516 197q-207 197 -207 491zM589 607q0 -70 39 -118t105 -48q91 0 151 88.5t60 191.5q0 68 -36 112.5t-94 44.5q-94 0 -159.5 -80.5t-65.5 -190.5z" />
<glyph unicode="[" horiz-adv-x="608" d="M154 -156v1426q0 24 16 41.5t36 17.5h324q16 0 24.5 -16t8.5 -39q0 -24 -9 -41.5t-24 -17.5h-158v-1313h158q16 0 24.5 -15.5t8.5 -37.5q0 -24 -9 -41.5t-24 -17.5h-315q-27 0 -44 15.5t-17 38.5z" />
<glyph unicode="\" horiz-adv-x="1068" d="M52 1211q0 38 39 70.5t77 32.5q33 0 52 -26l787 -1124q11 -16 11 -35q0 -36 -39 -68.5t-78 -32.5q-32 0 -51 26l-787 1124q-11 16 -11 33z" />
<glyph unicode="]" horiz-adv-x="613" d="M51 -151q0 22 8.5 37.5t24.5 15.5h158v1313h-160q-14 0 -22.5 17.5t-8.5 41.5q0 55 31 55h327q20 0 35.5 -17.5t15.5 -41.5v-1426q0 -23 -17 -38.5t-44 -15.5h-315q-15 0 -24 17.5t-9 41.5z" />
<glyph unicode="^" horiz-adv-x="861" d="M90 834v9l256 498q13 31 78 31q72 0 88 -31l253 -498q0 -1 0.5 -3.5t0.5 -3.5q0 -15 -22 -23t-53 -8q-38 0 -69.5 10t-39.5 28l-155 331l-155 -331q-8 -18 -40 -28t-69 -10q-73 0 -73 29z" />
<glyph unicode="_" horiz-adv-x="1383" d="M173 -427q0 26 17.5 44.5t47.5 18.5h904q31 0 47.5 -18.5t16.5 -44.5q0 -25 -16.5 -42.5t-47.5 -17.5h-904q-30 0 -47.5 17.5t-17.5 42.5z" />
<glyph unicode="`" horiz-adv-x="447" d="M95 1041q-9 16 0 48l29 184q3 10 8.5 17.5t9.5 10t7 2.5q9 0 64 -96l127 -220q3 -5 4 -11.5t0.5 -10.5t-3 -13t-2.5 -11l-28 -184q-6 -27 -22 -27q-13 0 -67 93z" />
<glyph unicode="{" horiz-adv-x="697" d="M71 560q0 29 9.5 50.5t27.5 21.5h22q41 5 79 50.5t38 120.5v277q0 64 22.5 114t57 77.5t70.5 41t69 13.5h147q16 0 25.5 -19.5t9.5 -47.5q0 -27 -9 -47t-26 -20h-69q-95 0 -95 -144v-265q0 -110 -55 -159q-51 -48 -116 -66q80 -29 125.5 -82t45.5 -147v-265 q0 -78 24.5 -111t70.5 -33h72q30 0 30 -64q0 -30 -8 -51t-22 -21h-150q-31 0 -67 14t-71 42t-58 78.5t-23 114.5v276q0 75 -38 123t-79 53h-22q-17 0 -27 22.5t-10 52.5z" />
<glyph unicode="|" horiz-adv-x="496" d="M151 40v1149q0 22 23 47l128 175q16 19 30 19q6 0 9 -2.5t5.5 -16t3 -41.5t0.5 -80v-1149q0 -23 -22 -47l-128 -175q-16 -19 -30 -19h-4q-6 0 -8.5 7t-4.5 38t-2 95z" />
<glyph unicode="}" horiz-adv-x="686" d="M55 1259q0 28 8.5 47.5t24.5 19.5h150q33 0 69 -13.5t70.5 -41t57 -77.5t22.5 -114v-277q0 -75 38 -121.5t78 -51.5h20q18 0 28.5 -21t10.5 -49q0 -30 -10.5 -52.5t-28.5 -22.5h-20q-40 -5 -78 -53t-38 -123v-276q0 -64 -23 -114.5t-58 -78.5t-71 -42t-67 -14h-150 q-14 0 -22.5 21.5t-8.5 50.5q0 64 31 64h72q46 0 70.5 33t24.5 111v265q0 94 45.5 147t125.5 82q-171 49 -171 219v6v265q0 144 -95 144h-72q-33 0 -33 67z" />
<glyph unicode="~" horiz-adv-x="1033" d="M103 432q0 19 8 37q45 82 89 108.5t119 26.5q67 0 141 -31t139.5 -61.5t111.5 -30.5q21 0 31.5 1.5t27.5 7.5t33.5 21.5t35.5 41.5l25 34q9 13 19 13q18 0 33 -34.5t15 -72.5q0 -24 -9 -44q-45 -81 -90.5 -107t-121.5 -26q-52 0 -110.5 19.5t-101.5 42.5t-93.5 42.5 t-87.5 19.5q-25 0 -38 -2.5t-34.5 -19t-47.5 -50.5l-26 -33q-5 -9 -12 -9q-18 0 -37 35t-19 71z" />
<glyph unicode="&#xad;" horiz-adv-x="1056" d="M93.5 417.5q-4.5 17.5 18.5 38.5l154 155q1 1 10.5 8t12.5 8.5t11 4t17 2.5h619q27 0 31.5 -17t-18.5 -38l-155 -155q-2 -1 -10.5 -8t-11.5 -9t-11 -4.5t-17 -2.5h-619q-27 0 -31.5 17.5z" />
<glyph unicode="&#x591;" />
<glyph unicode="&#x592;" />
<glyph unicode="&#x593;" />
<glyph unicode="&#x594;" />
<glyph unicode="&#x595;" />
<glyph unicode="&#x596;" />
<glyph unicode="&#x597;" />
<glyph unicode="&#x598;" />
<glyph unicode="&#x599;" />
<glyph unicode="&#x59a;" />
<glyph unicode="&#x59b;" />
<glyph unicode="&#x59c;" />
<glyph unicode="&#x59d;" />
<glyph unicode="&#x59e;" />
<glyph unicode="&#x59f;" />
<glyph unicode="&#x5a0;" />
<glyph unicode="&#x5a1;" />
<glyph unicode="&#x5a2;" />
<glyph unicode="&#x5a3;" />
<glyph unicode="&#x5a4;" />
<glyph unicode="&#x5a5;" />
<glyph unicode="&#x5a6;" />
<glyph unicode="&#x5a7;" />
<glyph unicode="&#x5a8;" />
<glyph unicode="&#x5a9;" />
<glyph unicode="&#x5aa;" />
<glyph unicode="&#x5ab;" />
<glyph unicode="&#x5ac;" />
<glyph unicode="&#x5ad;" />
<glyph unicode="&#x5ae;" />
<glyph unicode="&#x5af;" />
<glyph unicode="&#x5b0;" d="M-104 -477l38 89q4 10 5.5 13.5t6.5 7.5t12 4h112q18 0 22 -5t-3 -24l-34 -90q-11 -24 -29 -24h-110q-36 0 -20 29zM-89 -262l38 89q4 10 5.5 13.5t6.5 7.5t12 4h19h93q18 0 22 -5t-3 -24l-34 -90q-11 -24 -29 -24h-110q-36 0 -20 29z" />
<glyph unicode="&#x5b1;" d="M-361 -261l39 89q4 10 5.5 13t6.5 7t12 4h20h92q18 0 22 -5t-3 -23l-34 -91q-11 -24 -29 -24h-111q-36 0 -20 30zM-254 -477l39 89q4 10 5.5 13.5t6.5 7.5t12 4h20h92q18 0 22 -5t-3 -24l-34 -90q-11 -24 -29 -24h-111q-36 0 -20 29zM-94 -262l39 89q4 10 5.5 13.5 t6.5 7.5t12 4h20h92q18 0 22 -5t-3 -24l-34 -90q-11 -24 -29 -24h-111q-36 0 -20 29zM152 -477l39 89q4 10 5.5 13.5t6.5 7.5t12 4h112q18 0 22 -5t-3 -24l-34 -90q-11 -24 -29 -24h-111q-36 0 -20 29zM167 -262l39 89q4 10 5.5 13.5t6.5 7.5t12 4h20h92q18 0 22 -5t-3 -24 l-34 -90q-11 -24 -29 -24h-111q-36 0 -20 29z" />
<glyph unicode="&#x5b2;" d="M-361 -261l39 89q4 10 5.5 13t6.5 7t12 4h379q18 0 22 -5t-3 -24l-34 -90q-11 -24 -29 -24h-378q-36 0 -20 30zM152 -477l39 89q4 10 5.5 13.5t6.5 7.5t12 4h112q18 0 22 -5t-3 -24l-34 -90q-11 -24 -29 -24h-111q-36 0 -20 29zM167 -262l39 89q4 10 5.5 13.5t6.5 7.5 t12 4h20h92q18 0 22 -5t-3 -24l-34 -90q-11 -24 -29 -24h-111q-36 0 -20 29z" />
<glyph unicode="&#x5b3;" d="M-361 -261l39 89q4 10 5.5 13t6.5 7t12 4h379q18 0 22 -5t-3 -24l-34 -90q-11 -24 -29 -24h-115v-122q0 -11 -10 -24l-74 -74q-10 -12 -19.5 -10t-9.5 15v171q0 15 -24 29.5t-49 14.5h-77q-36 0 -20 30zM152 -477l39 89q4 10 5.5 13.5t6.5 7.5t12 4h112q18 0 22 -5 t-3 -24l-34 -90q-11 -24 -29 -24h-111q-36 0 -20 29zM167 -262l39 89q4 10 5.5 13.5t6.5 7.5t12 4h20h92q18 0 22 -5t-3 -24l-34 -90q-11 -24 -29 -24h-111q-36 0 -20 29z" />
<glyph unicode="&#x5b4;" d="M-96 -262l38 89q4 10 5.5 13.5t6.5 7.5t12 4h20h92q18 0 22 -5t-3 -24l-34 -90q-11 -24 -29 -24h-110q-36 0 -20 29z" />
<glyph unicode="&#x5b5;" d="M-230 -261l38 89q4 10 5.5 13t6.5 7t12 4h20h92q18 0 22 -5t-3 -23l-34 -91q-11 -24 -29 -24h-110q-36 0 -20 30zM37 -262l38 89q4 10 5.5 13.5t6.5 7.5t12 4h20h92q18 0 22 -5t-3 -24l-34 -90q-11 -24 -29 -24h-110q-36 0 -20 29z" />
<glyph unicode="&#x5b6;" d="M-230 -261l38 89q4 10 5.5 13t6.5 7t12 4h20h92q18 0 22 -5t-3 -23l-34 -91q-11 -24 -29 -24h-110q-36 0 -20 30zM-123 -477l38 89q4 10 5.5 13.5t6.5 7.5t12 4h20h92q18 0 22 -5t-3 -24l-34 -90q-11 -24 -29 -24h-110q-36 0 -20 29zM37 -262l38 89q4 10 5.5 13.5 t6.5 7.5t12 4h20h92q18 0 22 -5t-3 -24l-34 -90q-11 -24 -29 -24h-110q-36 0 -20 29z" />
<glyph unicode="&#x5b7;" d="M-230 -261l38 89q1 2 3 6.5t3 6l3 4.5t4 4t4.5 2t6.5 1h379q18 0 22 -5t-3 -24l-34 -90q-11 -24 -29 -24h-377q-36 0 -20 30z" />
<glyph unicode="&#x5b8;" d="M-230 -261l38 89q4 10 5.5 13t6.5 7t12 4h379q18 0 22 -5t-3 -24l-34 -90q-11 -24 -29 -24h-115v-122q0 -11 -10 -24l-74 -74q-10 -12 -19.5 -9.5t-9.5 15.5v170q0 15 -24 29.5t-49 14.5h-76q-36 0 -20 30z" />
<glyph unicode="&#x5b9;" d="M-97 1308l39 89q4 10 5.5 13.5t6.5 7.5t12 4h20h92q18 0 22 -5t-3 -24l-34 -90q-11 -24 -29 -24h-111q-36 0 -20 29z" />
<glyph unicode="&#x5ba;" d="M-97 1308l39 89q4 10 5.5 13.5t6.5 7.5t12 4h20h92q18 0 22 -5t-3 -24l-34 -90q-11 -24 -29 -24h-111q-36 0 -20 29z" />
<glyph unicode="&#x5bb;" d="M-273 -262l38 89q1 2 2.5 6t2.5 5.5t2.5 4.5t3 4t3.5 2.5t4.5 2t5.5 0.5h20h92q18 0 22 -5t-3 -24l-34 -90q-11 -24 -29 -24h-110q-36 0 -20 29zM-92 -373l38 89q1 2 2.5 6t2.5 5.5t2.5 4.5t3 4t3.5 2.5t4.5 2t5.5 0.5h20h92q18 0 22 -5t-3 -24l-34 -90q-11 -24 -29 -24 h-110q-36 0 -20 29zM80 -482l38 89q1 2 2.5 6t2.5 5.5t2.5 4.5t3 4t3.5 2.5t4.5 2t5.5 0.5h20h92q18 0 22 -5t-3 -24l-34 -90q-11 -24 -29 -24h-110q-36 0 -20 29z" />
<glyph unicode="&#x5bc;" d="M-97 480l39 89q4 10 5.5 13.5t6.5 7.5t12 4h20h92q18 0 22 -5t-3 -24l-34 -90q-11 -24 -29 -24h-111q-36 0 -20 29z" />
<glyph unicode="&#x5bd;" d="M-61 -246q0 7 2 11t7 10t6 8l74 77q13 14 23 11t10 -18v-253q0 -6 -2 -10.5t-7 -10.5t-7 -8l-75 -77q-11 -13 -21 -10.5t-10 18.5v252z" />
<glyph unicode="&#x5be;" horiz-adv-x="1058" d="M96.5 758.5q-4.5 17.5 18.5 38.5l154 155q1 1 10.5 8t12.5 8.5t11 4t17 2.5h619q27 0 31.5 -17t-18.5 -38l-155 -155q-2 -1 -10.5 -8t-11.5 -9t-11 -4.5t-17 -2.5h-619q-27 0 -31.5 17.5z" />
<glyph unicode="&#x5bf;" d="M-230 1223l38 89q1 2 3 6.5t3 6l3 4.5t4 4t4.5 2t6.5 1h379q18 0 22 -5t-3 -24l-34 -90q-11 -24 -29 -24h-377q-36 0 -20 30z" />
<glyph unicode="&#x5c0;" horiz-adv-x="460" d="M147 35v876q0 21 23 48l128 175q15 18 30 18q6 0 9 -2.5t5.5 -15.5t3.5 -41.5t1 -80.5v-875q0 -22 -23 -49l-128 -174q-16 -19 -30 -19h-4q-6 0 -8.5 7t-4.5 38t-2 95z" />
<glyph unicode="&#x5c1;" d="M-97 1308l39 89q4 10 5.5 13.5t6.5 7.5t12 4h20h92q18 0 22 -5t-3 -24l-34 -90q-11 -24 -29 -24h-111q-36 0 -20 29z" />
<glyph unicode="&#x5c2;" d="M-97 1308l39 89q4 10 5.5 13.5t6.5 7.5t12 4h20h92q18 0 22 -5t-3 -24l-34 -90q-11 -24 -29 -24h-111q-36 0 -20 29z" />
<glyph unicode="&#x5c3;" horiz-adv-x="652" d="M102 747q-5 17 18 38l155 155q2 2 8.5 7t9.5 7t8.5 5t11.5 4t13 1h215q27 0 31.5 -17t-18.5 -38l-155 -155q-3 -2 -9 -7t-9 -7t-8.5 -5t-11 -4t-12.5 -1h-215q-27 0 -32 17zM108 139.5q-4 17.5 19 38.5l155 154q2 2 5.5 5t5.5 4.5t5 4t5.5 3.5t5.5 2.5t6.5 2.5t7.5 1.5 t8 0.5h215q27 0 32 -17t-18 -38l-155 -155q-2 -2 -8.5 -7t-9.5 -7t-8.5 -5t-11.5 -4t-13 -1h-215q-27 0 -31 17.5z" />
<glyph unicode="&#x5c4;" />
<glyph unicode="&#x5c5;" />
<glyph unicode="&#x5c6;" horiz-adv-x="765" d="M97.5 829.5q-4.5 17.5 18.5 38.5l154 155q1 1 10.5 8t12.5 8.5t11 4t17 2.5h328q27 0 31.5 -17t-18.5 -38l-155 -155q-2 -1 -10.5 -8t-11.5 -9t-11 -4.5t-17 -2.5q-21 0 -27 -5t-6 -23l-52 -470q-3 -24 -3 -37q0 -21 8 -27t35 -10l120 -22q14 -3 45 -32l125 -179 q19 -25 11.5 -41t-33.5 -11q-3 0 -61.5 8.5t-142.5 22.5t-136 24q-51 11 -65.5 21t-44.5 55l-103 149q-16 23 -12 44l73 471q4 28 4 34q0 19 -12 23.5t-51 4.5q-27 0 -31.5 17.5z" />
<glyph unicode="&#x5c7;" d="M-184 -238l31 71q8 17 14 18q2 1 5 1h303q15 0 18 -4t-3 -19l-27 -72q-9 -20 -23 -20h-92v-169q0 -4 -11 -19l-59 -59q-8 -9 -14 -7.5t-6 12.5v207q0 12 -19.5 23.5t-39.5 11.5h-61q-30 0 -16 25z" />
<glyph unicode="&#x5d0;" horiz-adv-x="1559" d="M33 -80q283 540 283 767q0 51 -18 72l-95 113q0 25 23 48l155 157q26 27 43 27q13 0 24 -14.5t19 -34t22.5 -45.5t30.5 -42l293 -296q8 -7 17 -16.5t13.5 -14.5t9.5 -8.5t9 -3.5q11 0 32 34q24 39 39.5 100.5t15.5 119.5q-2 1 -7 5t-6.5 5t-5.5 4.5t-4.5 4.5t-2.5 4.5 t-2 5.5t0.5 5t2.5 6t5 7t7 8l157 153q6 7 8 9t7.5 6.5t9 6t10 3t13.5 1.5l309 -203q3 -2 9.5 -6.5t8.5 -6t6.5 -5t5.5 -5.5t2.5 -6t0.5 -7t-3.5 -7t-6.5 -8l-167 -166q-14 -17 -39 -17l-182 125q-27 19 -27 -25q0 -30 -22.5 -95.5t-52.5 -114.5q-6 -10 -14.5 -22t-12 -18 t-3.5 -11q0 -10 17 -27l362 -361q0 -23 -16 -39l-166 -163q-14 -10 -20.5 -7.5t-25.5 21.5l-6 6l-533 537q-39 37 -56 37q-20 0 -51 -53l-356 -596q-9 -15 -16.5 -15.5t-18.5 8.5l-32 25q-11 13 -2 28z" />
<glyph unicode="&#x5d1;" horiz-adv-x="1301" d="M34.5 -100q-7.5 15 10.5 41l128 179q2 2 6.5 8t7 8.5t7.5 6.5t10 6.5t12 3.5l546 99q57 13 73.5 37.5t16.5 82.5v348q0 31 -2 44.5t-11.5 27t-29.5 17.5t-56 4h-539q-61 22 -61 99l255 268q7 9 26 9q8 0 12 -3t2 -7l-50 -103q-6 -20 -1.5 -23t27.5 -3h10h549 q46 0 67.5 -27t21.5 -95v-524q0 -49 8.5 -67.5t35.5 -18.5q6 0 32 4l94 18q26 5 35.5 -9.5t-6.5 -38.5l-132 -195q-9 -16 -36 -22l-1036 -186q-25 -4 -32.5 11z" />
<glyph unicode="&#x5d2;" horiz-adv-x="1173" d="M24 -32q0 5 9 11q159 103 305 226.5t208 235.5q16 28 16 48q0 22 -24 61l-256 412q-14 23 19 56l155 155q10 11 19 14t16.5 -3.5t10.5 -10t9 -12.5l639 -1027q0 -22 -17 -39l-167 -164q-8 -9 -15 -11.5t-12.5 2t-9 7.5t-8.5 12.5t-6 10.5l-202 321q-24 39 -43 39 q-3 0 -6 -0.5t-6.5 -2.5t-6 -3t-7 -4.5t-7 -5.5t-8 -7t-8 -7.5t-9.5 -9t-10 -9.5q-114 -109 -275 -215t-222 -106q-29 0 -55 7.5t-26 18.5z" />
<glyph unicode="&#x5d3;" horiz-adv-x="1295" d="M115 909l254 269q8 8 24 8q8 0 13 -2.5t3 -7.5l-49 -102q-3 -8 -4 -13t-0.5 -7.5t4.5 -3.5t7.5 -1t12 0.5t14.5 0.5h394h7q50 0 67.5 7.5t56.5 46.5l110 112q21 22 38.5 17t17.5 -31v-98q0 -40 15.5 -50t59.5 -10h79q28 0 34 -15t-14 -37l-120 -126q-39 -41 -46.5 -60 t-7.5 -78v-578q0 -6 -4 -12.5t-7.5 -10t-11 -9.5t-9.5 -8l-165 -164q-22 -20 -29.5 -14t-7.5 34v750q0 68 -13.5 81t-74.5 13h-588q-60 22 -60 99z" />
<glyph unicode="&#x5d4;" horiz-adv-x="1449" d="M114 909l254 269q8 8 25 8q8 0 12.5 -2.5t2.5 -7.5l-49 -102q-3 -8 -4 -13t-0.5 -7.5t5 -3.5t8 -1t12 0.5t14.5 0.5h549h7q49 0 66.5 7.5t56.5 46.5l110 112q21 22 38.5 17t17.5 -31v-98q0 -40 15.5 -50t59.5 -10h79q28 0 34 -15t-14 -37l-120 -126q-39 -40 -46.5 -59 t-7.5 -79v-562q0 -15 -28 -40l-165 -164q-41 -41 -41 20v734q0 68 -13.5 81t-74.5 13h-743q-60 22 -60 99zM191 -11v417q0 27 23 50l156 156q22 22 38.5 17.5t16.5 -31.5v-427q0 -8 -6 -15t-16 -14.5t-12 -9.5l-169 -165q-20 -20 -25.5 -13.5t-5.5 35.5z" />
<glyph unicode="&#x5d5;" horiz-adv-x="611" d="M63.5 785.5q-3.5 8.5 7.5 18.5l374 368q11 12 24 16t22.5 -2.5t9.5 -22.5v-991q0 -22 -18 -40l-168 -165q-11 -14 -27 -14q-8 0 -12 4.5t-6.5 30.5t-2.5 81v781q0 3 -3 5t-10.5 3t-19.5 -4q-45 -18 -74 -34.5t-37 -24.5t-17 -13t-23 -5q-16 0 -19.5 8.5z" />
<glyph unicode="&#x5d6;" horiz-adv-x="896" d="M89.5 961.5q0.5 2.5 1 6.5t3.5 8.5t7 9.5l107 135q3 3 12.5 14t17 17t12.5 4l536 -212q35 -16 39 -24q5 -9 -7 -24l-113 -150q-11 -19 -35 -23l-73 35q-23 19 -39.5 14.5t-16.5 -44.5q0 -273 -12 -385t-50 -221q-20 -55 -55 -125t-45 -71q-3 -2 -6 4v192q0 132 -2 229.5 t-9 175.5t-13 129.5t-21.5 92.5t-28 64t-38.5 44t-45.5 32t-57.5 29q-21 10 -33 16q-2 1 -8.5 4t-8.5 4.5t-7 4t-6 4.5t-3.5 5t-2 5.5z" />
<glyph unicode="&#x5d7;" horiz-adv-x="1498" d="M103 912l332 289q22 23 38.5 18.5t16.5 -31.5v-98q0 -26 8 -35t39 -9h462q41 0 59 7.5t47 36.5l126 128q23 22 39.5 17t16.5 -31v-104q0 -38 7.5 -46t47.5 -8h100q26 0 33.5 -14.5t-12.5 -36.5l-176 -183v-638q0 -10 -5 -19.5t-8 -12.5t-17 -16l-170 -164q-34 -38 -34 21 v731q0 62 -17.5 80t-84.5 18h-372q-55 0 -72 -17t-17 -79v-562q0 -25 -14 -39l-167 -164q-22 -21 -36.5 -14t-14.5 34v841h-94q-61 20 -61 100z" />
<glyph unicode="&#x5d8;" horiz-adv-x="1484" d="M103 869q0 23 14 37q140 136 159 151l131 108q23 25 50 25q23 0 31 -21q190 -452 252 -940q53 26 84 42t72 38.5t63.5 38.5t52 40t44.5 45t33.5 49.5t27 59t17 69.5t11.5 83t3 97q0 122 -52 122h-203q-35 0 -54.5 -54t-19.5 -108q0 -7 -14 -7q-13 0 -19 10q-10 20 -10 90 q0 113 20 146q27 48 49.5 77.5t63.5 53.5t91 24h166q104 0 159 -46.5t55 -130.5q0 -130 -3 -219.5t-22 -173t-33 -133.5t-62.5 -106.5t-82.5 -86.5t-122 -80t-151.5 -80t-199.5 -93q-61 -28 -93 -43q-24 0 -39.5 9.5t-15.5 26.5q0 316 -215 836q-10 23 -16 35.5t-17 24.5 t-22 12q-8 0 -17 -6l-104 -70q-9 -8 -21 -8q-17 0 -29 17t-12 39z" />
<glyph unicode="&#x5d9;" horiz-adv-x="629" d="M75.5 784q-3.5 8 7.5 19l374 368q17 19 37 18t20 -27v-564q0 -20 -21 -41l-169 -164q-12 -15 -26 -15q-9 0 -12.5 5t-6 30t-2.5 81v343q0 3 -3.5 5.5t-11.5 3t-20 -4.5q-33 -15 -59.5 -29.5t-37 -21t-23 -10.5t-27.5 -4q-16 0 -19.5 8z" />
<glyph unicode="&#x5da;" horiz-adv-x="1119" d="M111 909l254 269q8 8 25 8q8 0 12.5 -2.5t2.5 -7.5l-49 -102q-3 -7 -4 -11.5t0 -7.5t2.5 -4t6 -1.5t8.5 -0.5t11 0.5t13 0.5h509q46 0 66 -27t20 -96v-1297q0 -11 5 -23.5t7 -17t-2 -11.5l-170 -165q-15 -22 -37.5 -15t-22.5 36v1296q0 52 -23 67t-92 15h-482 q-60 22 -60 97z" />
<glyph unicode="&#x5db;" horiz-adv-x="1203" d="M31 -79q-7 16 11 41l126 179q2 3 6 7.5t6.5 7l6 6t7 5.5t8.5 4t11 3l515 89q34 6 48.5 9t36 10.5t29.5 16.5t17.5 24.5t12 38t2.5 54.5v284q0 78 -18.5 95.5t-98.5 17.5h-552q-60 22 -60 97l254 268q8 9 25 9q8 0 12.5 -2.5t2.5 -7.5l-49 -103q-2 -6 -3.5 -10t-1.5 -6.5 t1.5 -4t3.5 -2.5t6 -1.5t7.5 0t10 0.5h11.5h583q46 0 67 -27t21 -95v-603q0 -40 -27.5 -101.5t-63 -108t-57.5 -50.5l-884 -155q-26 -5 -33 11z" />
<glyph unicode="&#x5dc;" horiz-adv-x="1216" d="M16 1322q1 6 9 15q16 20 64 71t128 135t121 128q21 23 38 18.5t17 -31.5v-526v-5q0 -55 10.5 -66t67.5 -11h31h503q60 0 90.5 -32.5t30.5 -80.5q0 -61 -33 -125q-118 -233 -250.5 -423.5t-302.5 -365.5q-38 -38 -64 -38h-7t-4.5 1.5t-3 4t-0.5 6.5q0 22 16 43 q107 153 196.5 316.5t187.5 395.5q11 23 6.5 41.5t-28.5 18.5h-603q-66 0 -66 50v530l-110 -86q-2 0 -12 0.5t-15 2t-11.5 4.5t-5.5 9z" />
<glyph unicode="&#x5dd;" horiz-adv-x="1383" d="M103 912l332 288q23 23 39 19t16 -31v-92q0 -35 6.5 -42.5t40.5 -7.5h635q32 0 54.5 -12t34 -28.5t17.5 -47t7 -54t1 -63.5v-499q16 0 21 -5.5t1.5 -15.5t-15.5 -28l-134 -194q-10 -16 -74 -28l-892 -177q0 9 9.5 23t21 29t21 42t9.5 58v722q0 28 -7 36t-36 8h-48 q-60 20 -60 100zM475 282q0 -45 6 -59.5t31 -14.5q18 0 51 6l396 70q23 4 33 6t21.5 7.5t14.5 9.5t7 16.5t4 24.5v36v364q0 44 -11.5 54t-57.5 10h-432q-42 0 -52.5 -10t-10.5 -50v-470z" />
<glyph unicode="&#x5de;" horiz-adv-x="1446" d="M63.5 776q-3.5 8 7.5 19l374 368q11 12 21.5 16t20 -2t14.5 -23l113 -359l293 299q46 43 101 69t98 26q38 0 57 -21q61 -70 102.5 -137.5t64.5 -122.5t35 -123.5t14.5 -119t2.5 -131.5v-93q0 -50 -14 -72l-155 -251q-10 -17 -35 -21l-1003 -175q-26 -5 -34 11t10 42 l127 177q3 3 7 8.5t7 9t7 7t9.5 6t12.5 3.5l817 141v74q0 184 -20 299t-93 228q-39 61 -72 61q-22 0 -47 -26l-255 -282l11 -33q3 -20 -15 -44l-149 -129q-30 -24 -51 29l-135 341q-1 3 -6.5 5.5t-15 3t-21.5 -4.5q-56 -22 -93.5 -40.5t-48 -26t-20 -11t-24.5 -3.5 q-16 0 -19.5 8z" />
<glyph unicode="&#x5df;" horiz-adv-x="613" d="M65.5 807.5q-3.5 8.5 7.5 18.5l355 346q11 12 24 16.5t22 -1.5t9 -24v-1491q0 -12 5 -24t7 -16.5t-2 -11.5l-188 -193q-15 -22 -36.5 -14t-21.5 35v1393q0 3 -3.5 5t-11 3t-19.5 -4q-100 -47 -116 -47q-2 0 -5.5 0.5t-6.5 0.5q-16 0 -19.5 8.5z" />
<glyph unicode="&#x5e0;" horiz-adv-x="675" d="M50 -34.5q-7 15.5 11 41.5l125 179q31 29 45 32l167 30l-66 608q0 4 -35 4q-55 -22 -95.5 -41.5t-54 -27t-25.5 -12t-27 -4.5q-16 0 -19.5 8.5t7.5 18.5l374 368q15 21 33.5 18.5t22.5 -30.5l135 -879q4 -21 -12 -44l-143 -207q-6 -9 -201 -41t-209 -32q-26 -5 -33 10.5z " />
<glyph unicode="&#x5e1;" horiz-adv-x="1391" d="M103 910l331 289q22 23 39 19t17 -31v-95q0 -32 5.5 -37t40.5 -5h634q32 0 54.5 -12.5t34.5 -30t18 -48.5t7.5 -55.5t1.5 -63.5v-30q0 -313 -157 -497q-164 -191 -475 -365q-52 -29 -101 -36.5t-126 -7.5q-25 0 -33 7t-11 32l-116 825q-4 30 -11 36t-35 6h-58 q-60 21 -60 100zM482 773q0 -14 3 -35l71 -526q5 -41 16.5 -51t61.5 -10q380 138 380 483v51q0 45 -6.5 71.5t-23.5 37.5t-31.5 13.5t-43.5 2.5h-6h-338q-52 0 -67.5 -6t-15.5 -31z" />
<glyph unicode="&#x5e2;" horiz-adv-x="1630" d="M27 -152q0 16 32 68l72 120q34 56 54 73.5t81 41.5q85 31 194 80q36 16 52 33.5t16 44.5q0 26 -19 77l-186 486q0 2 -8 6.5t-19.5 6.5t-24.5 -3q-26 -13 -51.5 -27t-35 -19t-21.5 -8.5t-26 -3.5q-16 0 -19.5 8t7.5 19l276 289q34 37 58 37q16 0 24 -17q59 -127 102 -233 t68 -176.5t87 -252.5q25 -74 51 -74q21 0 67 56q97 118 129.5 206t32.5 215q-14 10 -17 12.5t-8 10.5t-1.5 15t14.5 18l156 153l5 5t5.5 5t5 4t5.5 4t5.5 3t6.5 2.5t7 1t8 0.5l309 -202q2 -2 7.5 -5.5t7.5 -4.5t6 -4t5.5 -4.5t4 -4.5t2.5 -5t0.5 -5t-1 -6t-3.5 -6t-6 -7 l-166 -166q-13 -16 -38 -16l-106 56q-10 10 -19 10q-28 0 -54 -102q-23 -87 -57.5 -163.5t-69.5 -135t-90 -112.5t-96.5 -90.5t-113 -75t-115.5 -60t-128 -51.5t-126.5 -43t-133.5 -41q-63 -19 -95 -29q-77 -24 -95 -24q-14 0 -14 10z" />
<glyph unicode="&#x5e3;" horiz-adv-x="1213" d="M124 317v500q0 20 26 48l122 124q30 29 41.5 38t35.5 16t63 7h576q47 0 69 -27.5t22 -95.5v-1310q0 -6 4.5 -15t6.5 -13.5t-2 -10.5l-170 -165q-12 -16 -29 -16q-13 0 -22.5 10t-9.5 27v1263q0 80 -19 96.5t-104 16.5h-310q-55 0 -68 -17t-13 -74v-256l128 44 q21 6 28.5 -8.5t-8.5 -43.5l-107 -170q-19 -25 -44 -33q-70 -27 -118 -27q-30 0 -64 32.5t-34 59.5z" />
<glyph unicode="&#x5e4;" horiz-adv-x="1223" d="M28 -102q-7 16 11 41l126 180q2 2 6.5 7t6.5 7t6 5.5t7.5 5.5t8 4t10.5 3l634 117q70 12 91.5 28t21.5 68q0 24 -5 72l-29 258q-4 33 -6.5 50.5t-10.5 33t-14 21.5t-25.5 10t-35.5 4.5t-53 0.5h-255q-72 0 -88 -13.5t-16 -71.5v-123q0 -42 6.5 -57.5t30.5 -15.5 q13 0 29 3l108 20q23 5 30.5 -11t-10.5 -40l-142 -181q-12 -15 -39 -18l-138 -21q-27 0 -62.5 33.5t-35.5 59.5v445q0 10 1.5 18.5t5.5 17t6.5 14t9 13t8.5 10t9 9.5l8 7l242 257q17 19 38 19q20 0 8 -23l-40 -79q-12 -27 -9.5 -32.5t29.5 -5.5h512q44 0 62 -23.5t26 -92.5 l74 -602q0 -39 -54.5 -148t-86.5 -115l-984 -180q-26 -5 -33 11z" />
<glyph unicode="&#x5e5;" horiz-adv-x="1380" d="M69.5 832.5q-3.5 9.5 7.5 19.5l300 304q32 35 72 35q26 0 30 -19q6 -30 25 -123t35 -174.5t21 -114.5q6 -38 12 -52t18 -14q19 0 50.5 21t63.5 55.5t55 87.5t23 108q0 5 -1 16.5t-1 18.5t2 9l157 153q1 1 5.5 6t5.5 5.5t5.5 4.5t6.5 4.5t6.5 2.5t8.5 2.5t9 0.5l310 -202 q2 -1 8 -5.5l8 -6t6.5 -5t5.5 -5t3.5 -5t2 -6t-1 -6t-3 -7t-6.5 -7.5l-166 -165q-13 -16 -39 -16l-188 112q0 -33 -53 -89.5t-111.5 -102t-118.5 -85.5q-17 -11 -24 -17.5t-13.5 -20.5t-6.5 -34q0 -11 9.5 -81t19 -213t9.5 -331q0 -38 -0.5 -118t-0.5 -123q0 -17 -19 -40 l-128 -157q-11 -14 -27 -14q-12 0 -16.5 25t-4.5 91v139q0 176 -4.5 303.5t-18 289t-45.5 308t-82 277.5q0 2 -7 5t-17.5 4t-23.5 -4q-31 -12 -57 -23t-38 -16t-20.5 -9t-12 -5t-5.5 -1h-21q-16 0 -19.5 9.5z" />
<glyph unicode="&#x5e6;" horiz-adv-x="1609" d="M75.5 814.5q-3.5 9.5 7.5 19.5l264 276q33 35 53 35q14 0 29 -15l359 -366q48 -51 73 -51q16 0 37 33q23 40 35.5 100t12.5 109q-26 18 -28 26q-4 12 15 29l157 153q1 1 5.5 6t5.5 5.5t5.5 4.5t6.5 4.5t6.5 2.5t8.5 2.5t9 0.5l367 -249q30 -20 32 -28q3 -11 -10 -24 l-166 -165q-14 -17 -38 -17l-264 187q0 -46 -17 -111t-45 -112q-3 -5 -9.5 -16t-9 -15.5t-6.5 -12t-5.5 -12t-3 -10t-1.5 -10.5q0 -23 37 -63l250 -271q5 -5 5 -15q0 -38 -66.5 -107.5t-121.5 -81.5q-15 -4 -167.5 -32.5t-419 -78.5t-402.5 -76q24 52 104 176t106 139 l498 76q42 11 42 34q0 4 -1.5 9t-3.5 9t-6.5 10t-7.5 9.5t-9 10t-9 9.5l-10.5 10.5l-9.5 9.5l-485 484q0 3 -3.5 5.5t-11.5 3t-20 -4.5q-31 -12 -57 -23t-38 -16t-20.5 -9t-12 -5t-5.5 -1h-21q-16 0 -19.5 9.5z" />
<glyph unicode="&#x5e7;" horiz-adv-x="1488" d="M97 910l412 289q23 23 39.5 18.5t16.5 -31.5v-74q0 -41 11.5 -51.5t42.5 -10.5h22h711q55 0 55 -68q0 -102 -49 -172l-461 -669q-23 -27 -80.5 -49.5t-91.5 -22.5q-17 0 -13 13q39 46 79 101.5t68 98t69 114.5t59.5 106t64 119t58.5 110q9 17 9 31q0 22 -19.5 35 t-54.5 13h-381q-68 0 -83.5 -17t-15.5 -83v-1022q0 -16 -23 -39l-165 -164q-23 -20 -33.5 -14t-10.5 34v1211q0 57 -14.5 75.5t-70.5 18.5h-91q-60 21 -60 100z" />
<glyph unicode="&#x5e8;" horiz-adv-x="1173" d="M116 909l254 269q8 8 26 8t14 -10l-49 -102q-3 -7 -4 -11.5t-0.5 -7.5t1.5 -4t5 -1.5t7.5 -0.5t10.5 0.5t13 0.5h580q46 0 68 -27t22 -95v-712q0 -46 -19 -67l-157 -177q-14 -17 -26 -17q-16 0 -16 59v670v42t-2.5 31t-4 23.5t-10 14.5t-13.5 9.5t-22 4t-29 2.5h-39h-550 q-60 22 -60 98z" />
<glyph unicode="&#x5e9;" horiz-adv-x="2064" d="M103 865q0 22 15 37q140 135 158 151l115 100q19 24 49 24q23 0 32 -20q43 -101 136.5 -296t110.5 -231q4 -9 10 -22t8.5 -18.5t6 -12t6.5 -9t6 -2.5q10 0 42 42q19 25 34.5 112.5t15.5 149.5q-1 1 -14.5 12.5t-20 18.5t-13.5 18t-7 20q0 12 9 20l156 153l3 3 q23 23 45 23l310 -203q3 -2 9.5 -6.5t8.5 -6t6.5 -5t5.5 -5.5t2.5 -6t0.5 -7t-3.5 -7t-7.5 -8l-166 -167q-14 -16 -39 -16l-206 142q0 -65 -29.5 -202t-49.5 -167q-28 -45 -28 -59t20 -57l40 -86q11 -24 19.5 -34t20.5 -10q13 0 43 14q88 42 205 157t201 240.5t84 193.5 q0 19 -4 53q-25 19 -27 25q-6 12 13 30l157 153q10 10 14 13.5t13.5 8t21.5 4.5l309 -204q3 -2 8.5 -5.5t7.5 -5.5t6.5 -5t5.5 -5t3 -5t1.5 -5.5t-1 -5.5t-3 -6.5t-6.5 -7.5l-166 -166q-15 -17 -38 -17l-139 74q-10 10 -18 10q-20 0 -43.5 -34t-30.5 -66 q-26 -38 -71.5 -106.5t-77 -116.5t-80 -113.5t-88.5 -110.5t-93.5 -94.5t-103.5 -79t-111.5 -49t-123.5 -19.5q-7 0 -11.5 0.5t-9 2.5t-7 3t-7 5.5t-6 6.5t-6.5 9t-8 10q-1 1 -46.5 103t-85 188t-94.5 203t-105 216.5t-87 161.5q-6 10 -12 14t-12 2.5t-9.5 -4t-7.5 -6.5 l-5 -5l-103 -70q-10 -7 -21 -7q-18 0 -30 16.5t-12 38.5z" />
<glyph unicode="&#x5ea;" horiz-adv-x="1611" d="M28 13q-4 16 19 39l154 155q4 3 14 10t17.5 10.5t18.5 3.5h53q44 0 54.5 12t10.5 63v441q0 36 -8.5 46.5t-46.5 10.5h-39q-61 22 -61 105l332 289q22 23 38.5 19t16.5 -31v-86q0 -34 8.5 -42t34.5 -8h21h426h16q51 0 70.5 7.5t53.5 42.5l112 115q22 23 38.5 18t16.5 -31 v-158h154q27 0 35 -15t-12 -37l-118 -120q-38 -45 -48.5 -71t-10.5 -83v-556q0 -7 -4 -13t-14 -14.5t-12 -10.5l-169 -164q-19 -20 -27.5 -13.5t-8.5 34.5v717q0 76 -15.5 94t-79.5 18h-405q-44 0 -53.5 -10.5t-9.5 -50.5v-534q0 -18 -21 -39l-184 -179h-336q-27 0 -31 16z " />
<glyph unicode="&#x5f0;" horiz-adv-x="1097" d="M63.5 785.5q-3.5 8.5 7.5 18.5l374 368q11 12 24 16t22.5 -2.5t9.5 -22.5v-991q0 -22 -18 -40l-168 -165q-11 -14 -27 -14q-8 0 -12 4.5t-6.5 30.5t-2.5 81v781q0 3 -3 5t-10.5 3t-19.5 -4q-45 -18 -74 -34.5t-37 -24.5t-17 -13t-23 -5q-16 0 -19.5 8.5zM549.5 783.5 q-3.5 8.5 7.5 18.5l374 368q11 12 24 16t22.5 -2.5t9.5 -22.5v-991q0 -22 -18 -40l-168 -165q-11 -14 -27 -14q-8 0 -12 4.5t-6.5 30.5t-2.5 81v781q0 3 -3 5t-10.5 3t-19.5 -4q-45 -18 -74 -34.5t-37 -24.5t-17 -13t-23 -5q-16 0 -19.5 8.5z" />
<glyph unicode="&#x5f1;" horiz-adv-x="1106" d="M75.5 788q-3.5 8 7.5 19l374 368q17 19 37 18t20 -27v-564q0 -20 -21 -41l-169 -164q-12 -15 -26 -15q-9 0 -12.5 5t-6 30t-2.5 81v343q0 3 -3.5 5.5t-11.5 3t-20 -4.5q-33 -15 -59.5 -29.5t-37 -21t-23 -10.5t-27.5 -4q-16 0 -19.5 8zM558.5 790.5q-3.5 8.5 7.5 18.5 l374 368q11 12 24 16t22.5 -2.5t9.5 -22.5v-991q0 -22 -18 -40l-168 -165q-11 -14 -27 -14q-8 0 -12 4.5t-6.5 30.5t-2.5 81v781q0 3 -3 5t-10.5 3t-19.5 -4q-45 -18 -74 -34.5t-37 -24.5t-17 -13t-23 -5q-16 0 -19.5 8.5z" />
<glyph unicode="&#x5f2;" horiz-adv-x="1122" d="M75.5 784q-3.5 8 7.5 19l374 368q17 19 37 18t20 -27v-564q0 -20 -21 -41l-169 -164q-12 -15 -26 -15q-9 0 -12.5 5t-6 30t-2.5 81v343q0 3 -3.5 5.5t-11.5 3t-20 -4.5q-33 -15 -59.5 -29.5t-37 -21t-23 -10.5t-27.5 -4q-16 0 -19.5 8zM568.5 804q-3.5 8 7.5 19l374 368 q17 19 37 18t20 -27v-564q0 -20 -21 -41l-169 -164q-12 -15 -26 -15q-9 0 -12.5 5t-6 30t-2.5 81v343q0 3 -3.5 5.5t-11.5 3t-20 -4.5q-33 -15 -59.5 -29.5t-37 -21t-23 -10.5t-27.5 -4q-16 0 -19.5 8z" />
<glyph unicode="&#x5f3;" horiz-adv-x="417" d="M124 936v252q0 8 3.5 14.5t12 15.5t9.5 10l116 146q14 15 28 15q5 0 7.5 -2t5 -13t3 -34.5t0.5 -66.5v-253q0 -6 -2.5 -12.5t-5.5 -10t-8.5 -9.5t-7.5 -8l-116 -146q-14 -14 -28 -14q-6 0 -9 5t-5.5 31.5t-2.5 79.5z" />
<glyph unicode="&#x5f4;" horiz-adv-x="693" d="M124 936v252q0 6 2.5 12.5t5.5 10t8.5 9.5t7.5 8l116 146q15 15 28 15q5 0 7.5 -2t5 -13t3 -34.5t0.5 -66.5v-253q0 -6 -2.5 -12.5t-5.5 -10t-8.5 -9.5t-7.5 -8l-116 -146q-14 -14 -27 -14q-6 0 -9.5 5.5t-5.5 31.5t-2 79zM400 936v252q0 6 2.5 12.5t5.5 10t8.5 9.5 t7.5 8l116 146q15 15 28 15q6 0 8 -2t4.5 -13t3 -34t0.5 -67v-253q0 -6 -2.5 -12.5t-5 -10t-8.5 -9.5t-7 -8l-116 -146q-14 -14 -28 -14q-6 0 -9.5 5.5t-5.5 31.5t-2 79z" />
<glyph unicode="&#x2000;" horiz-adv-x="856" />
<glyph unicode="&#x2001;" horiz-adv-x="1712" />
<glyph unicode="&#x2002;" horiz-adv-x="856" />
<glyph unicode="&#x2003;" horiz-adv-x="1712" />
<glyph unicode="&#x2004;" horiz-adv-x="570" />
<glyph unicode="&#x2005;" horiz-adv-x="428" />
<glyph unicode="&#x2006;" horiz-adv-x="285" />
<glyph unicode="&#x2007;" horiz-adv-x="285" />
<glyph unicode="&#x2008;" horiz-adv-x="214" />
<glyph unicode="&#x2009;" horiz-adv-x="150" />
<glyph unicode="&#x200a;" horiz-adv-x="95" />
<glyph unicode="&#x200c;" horiz-adv-x="1228" />
<glyph unicode="&#x200d;" horiz-adv-x="1228" />
<glyph unicode="&#x200e;" horiz-adv-x="1228" />
<glyph unicode="&#x200f;" horiz-adv-x="1228" />
<glyph unicode="&#x2010;" horiz-adv-x="1056" d="M93.5 417.5q-4.5 17.5 18.5 38.5l154 155q1 1 10.5 8t12.5 8.5t11 4t17 2.5h619q27 0 31.5 -17t-18.5 -38l-155 -155q-2 -1 -10.5 -8t-11.5 -9t-11 -4.5t-17 -2.5h-619q-27 0 -31.5 17.5z" />
<glyph unicode="&#x2011;" horiz-adv-x="1056" d="M93.5 417.5q-4.5 17.5 18.5 38.5l154 155q1 1 10.5 8t12.5 8.5t11 4t17 2.5h619q27 0 31.5 -17t-18.5 -38l-155 -155q-2 -1 -10.5 -8t-11.5 -9t-11 -4.5t-17 -2.5h-619q-27 0 -31.5 17.5z" />
<glyph unicode="&#x2012;" horiz-adv-x="1056" d="M93.5 417.5q-4.5 17.5 18.5 38.5l154 155q1 1 10.5 8t12.5 8.5t11 4t17 2.5h619q27 0 31.5 -17t-18.5 -38l-155 -155q-2 -1 -10.5 -8t-11.5 -9t-11 -4.5t-17 -2.5h-619q-27 0 -31.5 17.5z" />
<glyph unicode="&#x2013;" horiz-adv-x="1203" d="M93 417.5q-5 17.5 21 38.5l181 155q1 1 12 8t14.5 8.5t13 4t19.5 2.5h724q32 0 37 -17t-21 -38l-182 -155q-2 -1 -12 -8t-13.5 -9t-13 -4.5t-19.5 -2.5h-724q-32 0 -37 17.5z" />
<glyph unicode="&#x2014;" horiz-adv-x="2227" d="M93.5 417.5q-10.5 17.5 43.5 38.5l360 155q3 1 25 8t29 8.5t26 4t40 2.5h1448q63 0 73.5 -17t-43.5 -38l-363 -155q-4 -1 -24 -8t-27 -9t-26 -4.5t-40 -2.5h-1448q-63 0 -73.5 17.5z" />
<glyph unicode="&#x2018;" horiz-adv-x="417" d="M124 936v252q0 8 3.5 14.5t12 15.5t9.5 10l116 146q14 15 28 15q5 0 7.5 -2t5 -13t3 -34.5t0.5 -66.5v-253q0 -6 -2.5 -12.5t-5.5 -10t-8.5 -9.5t-7.5 -8l-116 -146q-14 -14 -28 -14q-6 0 -9 5t-5.5 31.5t-2.5 79.5z" />
<glyph unicode="&#x2019;" horiz-adv-x="417" d="M124 936v252q0 8 3.5 14.5t12 15.5t9.5 10l116 146q14 15 28 15q5 0 7.5 -2t5 -13t3 -34.5t0.5 -66.5v-253q0 -6 -2.5 -12.5t-5.5 -10t-8.5 -9.5t-7.5 -8l-116 -146q-14 -14 -28 -14q-6 0 -9 5t-5.5 31.5t-2.5 79.5z" />
<glyph unicode="&#x201a;" horiz-adv-x="436" d="M109 -202q0 19 22 41l129 146q15 15 30 15q6 0 9 -2t5.5 -13.5t3 -35t0.5 -66.5v-166q0 -18 -22 -40l-129 -146q-15 -15 -30 -15h-4q-4 0 -6.5 2.5t-4.5 14t-2.5 35t-0.5 64.5v166z" />
<glyph unicode="&#x201c;" horiz-adv-x="693" d="M124 936v252q0 6 2.5 12.5t5.5 10t8.5 9.5t7.5 8l116 146q15 15 28 15q5 0 7.5 -2t5 -13t3 -34.5t0.5 -66.5v-253q0 -6 -2.5 -12.5t-5.5 -10t-8.5 -9.5t-7.5 -8l-116 -146q-14 -14 -27 -14q-6 0 -9.5 5.5t-5.5 31.5t-2 79zM400 936v252q0 6 2.5 12.5t5.5 10t8.5 9.5 t7.5 8l116 146q15 15 28 15q6 0 8 -2t4.5 -13t3 -34t0.5 -67v-253q0 -6 -2.5 -12.5t-5 -10t-8.5 -9.5t-7 -8l-116 -146q-14 -14 -28 -14q-6 0 -9.5 5.5t-5.5 31.5t-2 79z" />
<glyph unicode="&#x201d;" horiz-adv-x="693" d="M124 936v252q0 6 2.5 12.5t5.5 10t8.5 9.5t7.5 8l116 146q15 15 28 15q5 0 7.5 -2t5 -13t3 -34.5t0.5 -66.5v-253q0 -6 -2.5 -12.5t-5.5 -10t-8.5 -9.5t-7.5 -8l-116 -146q-14 -14 -27 -14q-6 0 -9.5 5.5t-5.5 31.5t-2 79zM400 936v252q0 6 2.5 12.5t5.5 10t8.5 9.5 t7.5 8l116 146q15 15 28 15q6 0 8 -2t4.5 -13t3 -34t0.5 -67v-253q0 -6 -2.5 -12.5t-5 -10t-8.5 -9.5t-7 -8l-116 -146q-14 -14 -28 -14q-6 0 -9.5 5.5t-5.5 31.5t-2 79z" />
<glyph unicode="&#x201e;" horiz-adv-x="680" d="M110 -45q0 6 2.5 12.5t5.5 10t8.5 9.5t7.5 8l116 146q15 15 28 15q5 0 7.5 -2t5 -13t3 -34.5t0.5 -66.5v-253q0 -6 -2.5 -12.5t-5.5 -10t-8.5 -9.5t-7.5 -8l-116 -146q-14 -14 -27 -14q-6 0 -9.5 5.5t-5.5 31.5t-2 79v252zM386 -45q0 6 2.5 12.5t5.5 10t8.5 9.5t7.5 8 l116 146q15 15 28 15q6 0 8 -2t4.5 -13t3 -34t0.5 -67v-253q0 -6 -2.5 -12.5t-5 -10t-8.5 -9.5t-7 -8l-116 -146q-14 -14 -28 -14q-6 0 -9.5 5.5t-5.5 31.5t-2 79v252z" />
<glyph unicode="&#x202f;" horiz-adv-x="342" />
<glyph unicode="&#x205f;" horiz-adv-x="428" />
<glyph unicode="&#xe000;" horiz-adv-x="500" d="M0 0z" />
<glyph unicode="&#xfb1d;" horiz-adv-x="629" d="M75.5 784q-3.5 8 7.5 19l374 368q17 19 37 18t20 -27v-564q0 -20 -21 -41l-169 -164q-12 -15 -26 -15q-9 0 -12.5 5t-6 30t-2.5 81v343q0 3 -3.5 5.5t-11.5 3t-20 -4.5q-33 -15 -59.5 -29.5t-37 -21t-23 -10.5t-27.5 -4q-16 0 -19.5 8zM290 149l38 89q4 10 5.5 13.5 t6.5 7.5t12 4h20h92q18 0 22 -5t-3 -24l-34 -90q-11 -24 -29 -24h-110q-36 0 -20 29z" />
<glyph unicode="&#xfb1e;" />
<glyph unicode="&#xfb1f;" horiz-adv-x="1122" d="M75.5 784q-3.5 8 7.5 19l374 368q17 19 37 18t20 -27v-564q0 -20 -21 -41l-169 -164q-12 -15 -26 -15q-9 0 -12.5 5t-6 30t-2.5 81v343q0 3 -3.5 5.5t-11.5 3t-20 -4.5q-33 -15 -59.5 -29.5t-37 -21t-23 -10.5t-27.5 -4q-16 0 -19.5 8zM256 94l56 89q2 2 4.5 6.5t4 6 l4.5 4.5t6 4t6.5 2t9.5 1h557q26 0 32 -5t-4 -24l-50 -90q-16 -24 -43 -24h-553q-53 0 -30 30zM568.5 804q-3.5 8 7.5 19l374 368q17 19 37 18t20 -27v-564q0 -20 -21 -41l-169 -164q-12 -15 -26 -15q-9 0 -12.5 5t-6 30t-2.5 81v343q0 3 -3.5 5.5t-11.5 3t-20 -4.5 q-33 -15 -59.5 -29.5t-37 -21t-23 -10.5t-27.5 -4q-16 0 -19.5 8z" />
<glyph unicode="&#xfb20;" horiz-adv-x="1630" d="M27 -152q0 16 32 68l72 120q34 56 54 73.5t81 41.5q85 31 194 80q36 16 52 33.5t16 44.5q0 26 -19 77l-186 486q0 2 -8 6.5t-19.5 6.5t-24.5 -3q-26 -13 -51.5 -27t-35 -19t-21.5 -8.5t-26 -3.5q-16 0 -19.5 8t7.5 19l276 289q34 37 58 37q16 0 24 -17q59 -127 102 -233 t68 -176.5t87 -252.5q25 -74 51 -74q21 0 67 56q97 118 129.5 206t32.5 215q-14 10 -17 12.5t-8 10.5t-1.5 15t14.5 18l156 153l5 5t5.5 5t5 4t5.5 4t5.5 3t6.5 2.5t7 1t8 0.5l309 -202q2 -2 7.5 -5.5t7.5 -4.5t6 -4t5.5 -4.5t4 -4.5t2.5 -5t0.5 -5t-1 -6t-3.5 -6t-6 -7 l-166 -166q-13 -16 -38 -16l-106 56q-10 10 -19 10q-28 0 -54 -102q-23 -87 -57.5 -163.5t-69.5 -135t-90 -112.5t-96.5 -90.5t-113 -75t-115.5 -60t-128 -51.5t-126.5 -43t-133.5 -41q-63 -19 -95 -29q-77 -24 -95 -24q-14 0 -14 10z" />
<glyph unicode="&#xfb21;" horiz-adv-x="2133" d="M33 -9q351 479 385 767q0 6 1 15.5t1 13.5q0 33 -35 76l-79 94q0 7 1 12.5t4 11t5 8t7 8.5t6 8l155 157q27 27 44 27q12 0 22 -16t17 -37.5t21.5 -45.5t34.5 -37l646 -420q64 -41 82 -41q12 0 22.5 10t31.5 38q43 70 81 167.5t38 140.5q-2 1 -7 5t-6.5 5t-5.5 4.5 t-4.5 4.5t-2.5 4.5t-2 5.5t0.5 5t2.5 6t5 7t7 8l157 153q6 7 8 9t7.5 6.5t9 6t10 3t13.5 1.5l309 -203q3 -2 9.5 -6.5t8.5 -6t6.5 -5t5.5 -5.5t2.5 -6t0.5 -7t-3.5 -7t-6.5 -8l-167 -166q-14 -17 -39 -17l-182 131q0 -45 -46 -135.5t-100 -162.5q-43 -49 -43 -66 q0 -13 14 -26t48 -36l374 -254q0 -26 -16 -39l-166 -163q-15 -11 -23 -7.5t-29 27.5l-934 656q-38 26 -55 26q-13 0 -25.5 -12t-35.5 -42l-521 -697q-11 -14 -17.5 -15t-17.5 8l-32 25q-11 13 -2 28z" />
<glyph unicode="&#xfb22;" horiz-adv-x="2080" d="M115 894v15l255 269q7 8 26 8q8 0 12 -3t2 -7l-50 -102q-3 -7 -4 -11.5t0 -7.5t2.5 -4t5.5 -1.5t8 -0.5t11 0.5t13 0.5h1125h29h30q48 0 67 8t56 46l111 112q21 22 38.5 17t17.5 -31v-74q0 -62 8 -73t56 -11h90q28 0 35 -15.5t-15 -36.5l-122 -128q-35 -37 -43.5 -58.5 t-8.5 -74.5v-581q0 -8 -5 -15t-15 -15t-12 -10l-166 -164q-22 -20 -29 -14t-7 34v740q0 49 -6 67.5t-30 27.5t-82 9h-1342q-61 20 -61 84z" />
<glyph unicode="&#xfb23;" horiz-adv-x="2102" d="M114 894v15l255 269q8 8 26 8q7 0 11.5 -2.5t2.5 -7.5l-50 -102q-2 -5 -3.5 -9t-1 -7t0.5 -5.5t3 -3.5t4 -2t6 -1h7.5h9.5h10h1148h29q68 0 89 8t64 52l111 112q21 22 38.5 17t17.5 -31v-74q0 -62 8 -73t56 -11h90q28 0 35 -15.5t-15 -36.5l-122 -128 q-35 -37 -43.5 -58.5t-8.5 -74.5v-581q0 -8 -5 -15t-15 -15t-12 -10l-166 -164q-22 -20 -29 -14t-7 34v740q0 49 -6 67.5t-30 27.5t-82 9h-1365q-61 20 -61 82zM191 -9v417q0 9 2.5 17t4.5 11.5t8.5 11t8.5 10.5l156 156q21 22 37.5 17.5t16.5 -31.5v-427q0 -5 -2 -10 t-6.5 -9.5t-8 -7t-9.5 -7t-8 -5.5l-168 -165q-19 -20 -25.5 -13.5t-6.5 35.5z" />
<glyph unicode="&#xfb24;" horiz-adv-x="2112" d="M31 -76q-7 14 11 38l126 179q3 3 9 11t10 11.5t11 7t15 3.5l1433 105q53 0 77 2.5t40 17t18.5 35t2.5 66.5v290q0 35 -0.5 51.5t-6.5 33t-11.5 22t-25 10.5t-37 5h-57.5h-1432q-61 20 -61 81v15l255 268q7 9 26 9q18 0 14 -10l-50 -103q-3 -6 -4 -10.5t0.5 -7t3.5 -4 t7 -1.5h9t11.5 0.5t12.5 0.5h1484q45 0 64 -26.5t19 -95.5v-601v-2q0 -35 -58 -144.5t-90 -115.5l-1793 -155q-26 0 -33 14z" />
<glyph unicode="&#xfb25;" horiz-adv-x="1970" d="M16 1321.5q1 6.5 8 15.5l313 334q21 23 38 18.5t17 -31.5v-608h1375q59 0 86.5 -33.5t27.5 -83.5q0 -51 -33 -123q-117 -230 -369.5 -463.5t-511.5 -346.5q-31 -16 -69 -16q-13 0 -28 2l-15 2q-2 0 -2 2q0 11 46 54q37 37 142 131t178.5 164t160 184t134.5 227q8 26 8 36 q0 4 -1 7.5t-1.5 5.5t-3 4t-3.5 3t-4.5 1.5t-5 1t-6 1t-5.5 0.5h-1256q-67 0 -67 52v471q0 42 -6.5 45.5t-37.5 -20.5l-66 -52q-2 0 -12 0.5t-15 2t-11 4t-5 9z" />
<glyph unicode="&#xfb26;" horiz-adv-x="2162" d="M103 894v16l332 288q19 20 34 20q21 0 21 -32v-66q0 -50 11.5 -61.5t66.5 -11.5h1383q32 0 54.5 -12t34 -28.5t17.5 -47t7 -54t1 -63.5v-499q25 0 25 -13q0 -10 -18 -36l-134 -194q-10 -16 -74 -28l-1671 -180v3q0 7 15.5 26.5t30.5 51.5t15 71v706q0 38 -17.5 49 t-73.5 11q-25 0 -42.5 27t-17.5 57zM476 279q0 -66 13 -88t58 -22q22 0 67 5l1084 112q74 9 96 25.5t22 78.5v15v291v22q0 63 -21 79t-104 16h-1098q-46 0 -66.5 -2t-33.5 -15.5t-15 -31t-2 -60.5v-425z" />
<glyph unicode="&#xfb27;" horiz-adv-x="2178" d="M116 894v15l255 269q8 8 25 8q8 0 12.5 -2.5t2.5 -7.5l-50 -102q-3 -7 -3 -11.5t2 -7t5.5 -4t9.5 -2t11 -0.5t13.5 0.5t13.5 0.5h1584q44 0 58 -26.5t14 -99.5v-712q0 -47 -18 -67l-158 -177q-13 -17 -26 -17q-16 0 -16 59v684q0 33 -0.5 46.5t-6.5 30.5t-13 21 t-28.5 9.5t-44 6t-67.5 0.5h-1514q-29 10 -45 33t-16 53z" />
<glyph unicode="&#xfb28;" horiz-adv-x="1999" d="M27 15q-3 15 21 37l154 155q4 3 14 10t17.5 10.5t18.5 3.5h57q44 0 52.5 10.5t8.5 67.5v420q0 53 -13.5 64t-80.5 11q-21 0 -41 30t-20 60v15l332 289q23 23 39 19t16 -31v-83q0 -39 11.5 -47.5t63.5 -8.5h762h29q68 0 89 8t64 52l111 112q21 22 38.5 17t17.5 -31v-74 q0 -63 8 -73.5t56 -10.5h90q28 0 35 -15.5t-15 -36.5l-122 -128q-35 -37 -43.5 -58.5t-8.5 -74.5v-581q0 -8 -5 -15t-15 -15t-12 -10l-166 -164q-22 -20 -29 -14t-7 34v740q0 49 -6 67.5t-30 27.5t-82 9h-758q-55 0 -65.5 -11.5t-10.5 -63.5v-523q0 -21 -22 -39l-128 -125 q-31 -37 -47.5 -44t-59.5 -7h-288q-27 0 -30 15z" />
<glyph unicode="&#xfb29;" horiz-adv-x="845" d="M57 444l122 178h174v173l183 118v-291h287l-128 -178h-638z" />
<glyph unicode="&#xfb2a;" horiz-adv-x="2064" d="M103 865q0 22 15 37q140 135 158 151l115 100q19 24 49 24q23 0 32 -20q43 -101 136.5 -296t110.5 -231q4 -9 10 -22t8.5 -18.5t6 -12t6.5 -9t6 -2.5q10 0 42 42q19 25 34.5 112.5t15.5 149.5q-1 1 -14.5 12.5t-20 18.5t-13.5 18t-7 20q0 12 9 20l156 153l3 3 q23 23 45 23l310 -203q3 -2 9.5 -6.5t8.5 -6t6.5 -5t5.5 -5.5t2.5 -6t0.5 -7t-3.5 -7t-7.5 -8l-166 -167q-14 -16 -39 -16l-206 142q0 -65 -29.5 -202t-49.5 -167q-28 -45 -28 -59t20 -57l40 -86q11 -24 19.5 -34t20.5 -10q13 0 43 14q88 42 205 157t201 240.5t84 193.5 q0 19 -4 53q-25 19 -27 25q-6 12 13 30l157 153q10 10 14 13.5t13.5 8t21.5 4.5l309 -204q3 -2 8.5 -5.5t7.5 -5.5t6.5 -5t5.5 -5t3 -5t1.5 -5.5t-1 -5.5t-3 -6.5t-6.5 -7.5l-166 -166q-15 -17 -38 -17l-139 74q-10 10 -18 10q-20 0 -43.5 -34t-30.5 -66 q-26 -38 -71.5 -106.5t-77 -116.5t-80 -113.5t-88.5 -110.5t-93.5 -94.5t-103.5 -79t-111.5 -49t-123.5 -19.5q-7 0 -11.5 0.5t-9 2.5t-7 3t-7 5.5t-6 6.5t-6.5 9t-8 10q-1 1 -46.5 103t-85 188t-94.5 203t-105 216.5t-87 161.5q-6 10 -12 14t-12 2.5t-9.5 -4t-7.5 -6.5 l-5 -5l-103 -70q-10 -7 -21 -7q-18 0 -30 16.5t-12 38.5zM1749 1181l39 89q4 10 5.5 13.5t6.5 7.5t12 4h20h92q18 0 22 -5t-3 -24l-34 -90q-11 -24 -29 -24h-111q-36 0 -20 29z" />
<glyph unicode="&#xfb2b;" horiz-adv-x="2075" d="M108 1181l39 91q4 10 5.5 14t6.5 8t12 4h20h92q18 0 22 -5t-3 -25l-34 -92q-11 -24 -29 -24h-111q-36 0 -20 29zM114 865q0 22 15 37q140 135 158 151l115 100q19 24 49 24q23 0 32 -20q43 -101 136.5 -296t110.5 -231q4 -9 10 -22t8.5 -18.5t6 -12t6.5 -9t6 -2.5 q10 0 42 42q19 25 34.5 112.5t15.5 149.5q-1 1 -14.5 12.5t-20 18.5t-13.5 18t-7 20q0 12 9 20l156 153l3 3q23 23 45 23l310 -203q3 -2 9.5 -6.5t8.5 -6t6.5 -5t5.5 -5.5t2.5 -6t0.5 -7t-3.5 -7t-7.5 -8l-166 -167q-14 -16 -39 -16l-206 142q0 -65 -29.5 -202t-49.5 -167 q-28 -45 -28 -59t20 -57l40 -86q11 -24 19.5 -34t20.5 -10q13 0 43 14q88 42 205 157t201 240.5t84 193.5q0 19 -4 53q-25 19 -27 25q-6 12 13 30l157 153q10 10 14 13.5t13.5 8t21.5 4.5l309 -204q3 -2 8.5 -5.5t7.5 -5.5t6.5 -5t5.5 -5t3 -5t1.5 -5.5t-1 -5.5t-3 -6.5 t-6.5 -7.5l-166 -166q-15 -17 -38 -17l-139 74q-10 10 -18 10q-20 0 -43.5 -34t-30.5 -66q-26 -38 -71.5 -106.5t-77 -116.5t-80 -113.5t-88.5 -110.5t-93.5 -94.5t-103.5 -79t-111.5 -49t-123.5 -19.5q-7 0 -11.5 0.5t-9 2.5t-7 3t-7 5.5t-6 6.5t-6.5 9t-8 10 q-1 1 -46.5 103t-85 188t-94.5 203t-105 216.5t-87 161.5q-6 10 -12 14t-12 2.5t-9.5 -4t-7.5 -6.5l-5 -5l-103 -70q-10 -7 -21 -7q-18 0 -30 16.5t-12 38.5z" />
<glyph unicode="&#xfb2c;" horiz-adv-x="2064" d="M103 865q0 22 15 37q140 135 158 151l115 100q19 24 49 24q23 0 32 -20q43 -101 136.5 -296t110.5 -231q4 -9 10 -22t8.5 -18.5t6 -12t6.5 -9t6 -2.5q10 0 42 42q19 25 34.5 112.5t15.5 149.5q-1 1 -14.5 12.5t-20 18.5t-13.5 18t-7 20q0 12 9 20l156 153l3 3 q23 23 45 23l310 -203q3 -2 9.5 -6.5t8.5 -6t6.5 -5t5.5 -5.5t2.5 -6t0.5 -7t-3.5 -7t-7.5 -8l-166 -167q-14 -16 -39 -16l-206 142q0 -65 -29.5 -202t-49.5 -167q-28 -45 -28 -59t20 -57l40 -86q11 -24 19.5 -34t20.5 -10q13 0 43 14q88 42 205 157t201 240.5t84 193.5 q0 19 -4 53q-25 19 -27 25q-6 12 13 30l157 153q10 10 14 13.5t13.5 8t21.5 4.5l309 -204q3 -2 8.5 -5.5t7.5 -5.5t6.5 -5t5.5 -5t3 -5t1.5 -5.5t-1 -5.5t-3 -6.5t-6.5 -7.5l-166 -166q-15 -17 -38 -17l-139 74q-10 10 -18 10q-20 0 -43.5 -34t-30.5 -66 q-26 -38 -71.5 -106.5t-77 -116.5t-80 -113.5t-88.5 -110.5t-93.5 -94.5t-103.5 -79t-111.5 -49t-123.5 -19.5q-7 0 -11.5 0.5t-9 2.5t-7 3t-7 5.5t-6 6.5t-6.5 9t-8 10q-1 1 -46.5 103t-85 188t-94.5 203t-105 216.5t-87 161.5q-6 10 -12 14t-12 2.5t-9.5 -4t-7.5 -6.5 l-5 -5l-103 -70q-10 -7 -21 -7q-18 0 -30 16.5t-12 38.5zM997 477l39 89q4 10 5.5 13.5t6.5 7.5t12 4h20h92q18 0 22 -5t-3 -24l-34 -90q-11 -24 -29 -24h-111q-36 0 -20 29zM1749 1181l39 89q4 10 5.5 13.5t6.5 7.5t12 4h20h92q18 0 22 -5t-3 -24l-34 -90q-11 -24 -29 -24 h-111q-36 0 -20 29z" />
<glyph unicode="&#xfb2d;" horiz-adv-x="2064" d="M103 865q0 22 15 37q140 135 158 151l115 100q19 24 49 24q23 0 32 -20q43 -101 136.5 -296t110.5 -231q4 -9 10 -22t8.5 -18.5t6 -12t6.5 -9t6 -2.5q10 0 42 42q19 25 34.5 112.5t15.5 149.5q-1 1 -14.5 12.5t-20 18.5t-13.5 18t-7 20q0 12 9 20l156 153l3 3 q23 23 45 23l310 -203q3 -2 9.5 -6.5t8.5 -6t6.5 -5t5.5 -5.5t2.5 -6t0.5 -7t-3.5 -7t-7.5 -8l-166 -167q-14 -16 -39 -16l-206 142q0 -65 -29.5 -202t-49.5 -167q-28 -45 -28 -59t20 -57l40 -86q11 -24 19.5 -34t20.5 -10q13 0 43 14q88 42 205 157t201 240.5t84 193.5 q0 19 -4 53q-25 19 -27 25q-6 12 13 30l157 153q10 10 14 13.5t13.5 8t21.5 4.5l309 -204q3 -2 8.5 -5.5t7.5 -5.5t6.5 -5t5.5 -5t3 -5t1.5 -5.5t-1 -5.5t-3 -6.5t-6.5 -7.5l-166 -166q-15 -17 -38 -17l-139 74q-10 10 -18 10q-20 0 -43.5 -34t-30.5 -66 q-26 -38 -71.5 -106.5t-77 -116.5t-80 -113.5t-88.5 -110.5t-93.5 -94.5t-103.5 -79t-111.5 -49t-123.5 -19.5q-7 0 -11.5 0.5t-9 2.5t-7 3t-7 5.5t-6 6.5t-6.5 9t-8 10q-1 1 -46.5 103t-85 188t-94.5 203t-105 216.5t-87 161.5q-6 10 -12 14t-12 2.5t-9.5 -4t-7.5 -6.5 l-5 -5l-103 -70q-10 -7 -21 -7q-18 0 -30 16.5t-12 38.5zM108 1181l39 91q4 10 5.5 14t6.5 8t12 4h20h92q18 0 22 -5t-3 -25l-34 -92q-11 -24 -29 -24h-111q-36 0 -20 29zM997 477l39 89q4 10 5.5 13.5t6.5 7.5t12 4h20h92q18 0 22 -5t-3 -24l-34 -90q-11 -24 -29 -24h-111 q-36 0 -20 29z" />
<glyph unicode="&#xfb2e;" horiz-adv-x="1559" d="M33 -80q283 540 283 767q0 51 -18 72l-95 113q0 25 23 48l155 157q26 27 43 27q13 0 24 -14.5t19 -34t22.5 -45.5t30.5 -42l293 -296q8 -7 17 -16.5t13.5 -14.5t9.5 -8.5t9 -3.5q11 0 32 34q24 39 39.5 100.5t15.5 119.5q-2 1 -7 5t-6.5 5t-5.5 4.5t-4.5 4.5t-2.5 4.5 t-2 5.5t0.5 5t2.5 6t5 7t7 8l157 153q6 7 8 9t7.5 6.5t9 6t10 3t13.5 1.5l309 -203q3 -2 9.5 -6.5t8.5 -6t6.5 -5t5.5 -5.5t2.5 -6t0.5 -7t-3.5 -7t-6.5 -8l-167 -166q-14 -17 -39 -17l-182 125q-27 19 -27 -25q0 -30 -22.5 -95.5t-52.5 -114.5q-6 -10 -14.5 -22t-12 -18 t-3.5 -11q0 -10 17 -27l362 -361q0 -23 -16 -39l-166 -163q-14 -10 -20.5 -7.5t-25.5 21.5l-6 6l-533 537q-39 37 -56 37q-20 0 -51 -53l-356 -596q-9 -15 -16.5 -15.5t-18.5 8.5l-32 25q-11 13 -2 28zM416 -261l38 89q1 2 3 6.5t3 6l3 4.5t4 4t4.5 2t6.5 1h379q18 0 22 -5 t-3 -24l-34 -90q-11 -24 -29 -24h-377q-36 0 -20 30z" />
<glyph unicode="&#xfb2f;" horiz-adv-x="1559" d="M33 -80q283 540 283 767q0 51 -18 72l-95 113q0 25 23 48l155 157q26 27 43 27q13 0 24 -14.5t19 -34t22.5 -45.5t30.5 -42l293 -296q8 -7 17 -16.5t13.5 -14.5t9.5 -8.5t9 -3.5q11 0 32 34q24 39 39.5 100.5t15.5 119.5q-2 1 -7 5t-6.5 5t-5.5 4.5t-4.5 4.5t-2.5 4.5 t-2 5.5t0.5 5t2.5 6t5 7t7 8l157 153q6 7 8 9t7.5 6.5t9 6t10 3t13.5 1.5l309 -203q3 -2 9.5 -6.5t8.5 -6t6.5 -5t5.5 -5.5t2.5 -6t0.5 -7t-3.5 -7t-6.5 -8l-167 -166q-14 -17 -39 -17l-182 125q-27 19 -27 -25q0 -30 -22.5 -95.5t-52.5 -114.5q-6 -10 -14.5 -22t-12 -18 t-3.5 -11q0 -10 17 -27l362 -361q0 -23 -16 -39l-166 -163q-14 -10 -20.5 -7.5t-25.5 21.5l-6 6l-533 537q-39 37 -56 37q-20 0 -51 -53l-356 -596q-9 -15 -16.5 -15.5t-18.5 8.5l-32 25q-11 13 -2 28zM463 -259l38 88q4 10 5.5 13t6.5 7t12 4h379q18 0 22 -5t-3 -24 l-34 -89q-11 -24 -29 -24h-115v-121q0 -10 -10 -23l-74 -74q-10 -11 -19.5 -8.5t-9.5 14.5v169q0 14 -24 28.5t-49 14.5h-76q-36 0 -20 30z" />
<glyph unicode="&#xfb30;" horiz-adv-x="1558" d="M33 -80q283 540 283 767q0 51 -18 72l-95 113q0 25 23 48l155 157q26 27 43 27q13 0 24 -14.5t19 -34t22.5 -45.5t30.5 -42l293 -296q8 -7 17 -16.5t13.5 -14.5t9.5 -8.5t9 -3.5q11 0 32 34q24 39 39.5 100.5t15.5 119.5q-2 1 -7 5t-6.5 5t-5.5 4.5t-4.5 4.5t-2.5 4.5 t-2 5.5t0.5 5t2.5 6t5 7t7 8l157 153q6 7 8 9t7.5 6.5t9 6t10 3t13.5 1.5l309 -203q3 -2 9.5 -6.5t8.5 -6t6.5 -5t5.5 -5.5t2.5 -6t0.5 -7t-3.5 -7t-6.5 -8l-167 -166q-14 -17 -39 -17l-182 125q-27 19 -27 -25q0 -30 -22.5 -95.5t-52.5 -114.5q-6 -10 -14.5 -22t-12 -18 t-3.5 -11q0 -10 17 -27l362 -361q0 -23 -16 -39l-166 -163q-14 -10 -20.5 -7.5t-25.5 21.5l-6 6l-533 537q-39 37 -56 37q-20 0 -51 -53l-356 -596q-9 -15 -16.5 -15.5t-18.5 8.5l-32 25q-11 13 -2 28zM540 -75l39 89q4 10 5.5 13.5t6.5 7.5t12 4h20h92q18 0 22 -5t-3 -24 l-34 -90q-11 -24 -29 -24h-111q-36 0 -20 29z" />
<glyph unicode="&#xfb31;" horiz-adv-x="1300" d="M34.5 -100q-7.5 15 10.5 41l128 179q2 2 6.5 8t7 8.5t7.5 6.5t10 6.5t12 3.5l546 99q57 13 73.5 37.5t16.5 82.5v348q0 31 -2 44.5t-11.5 27t-29.5 17.5t-56 4h-539q-61 22 -61 99l255 268q7 9 26 9q8 0 12 -3t2 -7l-50 -103q-6 -20 -1.5 -23t27.5 -3h10h549 q46 0 67.5 -27t21.5 -95v-524q0 -49 8.5 -67.5t35.5 -18.5q6 0 32 4l94 18q26 5 35.5 -9.5t-6.5 -38.5l-132 -195q-9 -16 -36 -22l-1036 -186q-25 -4 -32.5 11zM374 481l39 89q4 10 5.5 13.5t6.5 7.5t12 4h20h92q18 0 22 -5t-3 -24l-34 -90q-11 -24 -29 -24h-111 q-36 0 -20 29z" />
<glyph unicode="&#xfb32;" horiz-adv-x="1173" d="M24 -32q0 5 9 11q159 103 305 226.5t208 235.5q16 28 16 48q0 22 -24 61l-256 412q-14 23 19 56l155 155q10 11 19 14t16.5 -3.5t10.5 -10t9 -12.5l639 -1027q0 -22 -17 -39l-167 -164q-8 -9 -15 -11.5t-12.5 2t-9 7.5t-8.5 12.5t-6 10.5l-202 321q-24 39 -43 39 q-3 0 -6 -0.5t-6.5 -2.5t-6 -3t-7 -4.5t-7 -5.5t-8 -7t-8 -7.5t-9.5 -9t-10 -9.5q-114 -109 -275 -215t-222 -106q-29 0 -55 7.5t-26 18.5zM167 479l39 89q4 10 5.5 13.5t6.5 7.5t12 4h20h92q18 0 22 -5t-3 -24l-34 -90q-11 -24 -29 -24h-111q-36 0 -20 29z" />
<glyph unicode="&#xfb33;" horiz-adv-x="1294" d="M115 909l254 269q8 8 24 8q8 0 13 -2.5t3 -7.5l-49 -102q-3 -8 -4 -13t-0.5 -7.5t4.5 -3.5t7.5 -1t12 0.5t14.5 0.5h394h7q50 0 67.5 7.5t56.5 46.5l110 112q21 22 38.5 17t17.5 -31v-98q0 -40 15.5 -50t59.5 -10h79q28 0 34 -15t-14 -37l-120 -126q-39 -41 -46.5 -60 t-7.5 -78v-578q0 -6 -4 -12.5t-7.5 -10t-11 -9.5t-9.5 -8l-165 -164q-22 -20 -29.5 -14t-7.5 34v750q0 68 -13.5 81t-74.5 13h-588q-60 22 -60 99zM366 418l39 89q4 10 5.5 13.5t6.5 7.5t12 4h20h92q18 0 22 -5t-3 -24l-34 -90q-11 -24 -29 -24h-111q-36 0 -20 29z" />
<glyph unicode="&#xfb34;" horiz-adv-x="1448" d="M114 909l254 269q8 8 25 8q8 0 12.5 -2.5t2.5 -7.5l-49 -102q-3 -8 -4 -13t-0.5 -7.5t5 -3.5t8 -1t12 0.5t14.5 0.5h549h7q49 0 66.5 7.5t56.5 46.5l110 112q21 22 38.5 17t17.5 -31v-98q0 -40 15.5 -50t59.5 -10h79q28 0 34 -15t-14 -37l-120 -126q-39 -40 -46.5 -59 t-7.5 -79v-562q0 -15 -28 -40l-165 -164q-41 -41 -41 20v734q0 68 -13.5 81t-74.5 13h-743q-60 22 -60 99zM191 -11v417q0 27 23 50l156 156q22 22 38.5 17.5t16.5 -31.5v-427q0 -8 -6 -15t-16 -14.5t-12 -9.5l-169 -165q-20 -20 -25.5 -13.5t-5.5 35.5zM596 420l39 89 q4 10 5.5 13.5t6.5 7.5t12 4h20h92q18 0 22 -5t-3 -24l-34 -90q-11 -24 -29 -24h-111q-36 0 -20 29z" />
<glyph unicode="&#xfb35;" horiz-adv-x="644" d="M67 420l39 89q4 10 5.5 13.5t6.5 7.5t12 4h20h92q18 0 22 -5t-3 -24l-34 -90q-11 -24 -29 -24h-111q-36 0 -20 29zM96.5 785.5q-3.5 8.5 7.5 18.5l374 368q11 12 24 16t22.5 -2.5t9.5 -22.5v-991q0 -22 -18 -40l-168 -165q-11 -14 -27 -14q-8 0 -12 4.5t-6.5 30.5 t-2.5 81v781q0 3 -3 5t-10.5 3t-19.5 -4q-45 -18 -74 -34.5t-37 -24.5t-17 -13t-23 -5q-16 0 -19.5 8.5z" />
<glyph unicode="&#xfb36;" horiz-adv-x="942" d="M94 420l39 89q4 10 5.5 13.5t6.5 7.5t12 4h20h92q18 0 22 -5t-3 -24l-34 -90q-11 -24 -29 -24h-111q-36 0 -20 29zM136.5 961.5q0.5 2.5 1 6.5t3.5 8.5t7 9.5l107 135q3 3 12.5 14t17 17t12.5 4l536 -212q35 -16 39 -24q5 -9 -7 -24l-113 -150q-11 -19 -35 -23l-73 35 q-23 19 -39.5 14.5t-16.5 -44.5q0 -273 -12 -385t-50 -221q-20 -55 -55 -125t-45 -71q-3 -2 -6 4v192q0 132 -2 229.5t-9 175.5t-13 129.5t-21.5 92.5t-28 64t-38.5 44t-45.5 32t-57.5 29q-21 10 -33 16q-2 1 -8.5 4t-8.5 4.5t-7 4t-6 4.5t-3.5 5t-2 5.5z" />
<glyph unicode="&#xfb37;" horiz-adv-x="1497" d="M103 912l332 289q22 23 38.5 18.5t16.5 -31.5v-98q0 -26 8 -35t39 -9h462q41 0 59 7.5t47 36.5l126 128q23 22 39.5 17t16.5 -31v-104q0 -38 7.5 -46t47.5 -8h100q26 0 33.5 -14.5t-12.5 -36.5l-176 -183v-638q0 -10 -5 -19.5t-8 -12.5t-17 -16l-170 -164q-34 -38 -34 21 v731q0 62 -17.5 80t-84.5 18h-372q-55 0 -72 -17t-17 -79v-562q0 -25 -14 -39l-167 -164q-22 -21 -36.5 -14t-14.5 34v841h-94q-61 20 -61 100zM647 423l39 89q4 10 5.5 13.5t6.5 7.5t12 4h20h92q18 0 22 -5t-3 -24l-34 -90q-11 -24 -29 -24h-111q-36 0 -20 29z" />
<glyph unicode="&#xfb38;" horiz-adv-x="1484" d="M103 869q0 23 14 37q140 136 159 151l131 108q23 25 50 25q23 0 31 -21q190 -452 252 -940q53 26 84 42t72 38.5t63.5 38.5t52 40t44.5 45t33.5 49.5t27 59t17 69.5t11.5 83t3 97q0 122 -52 122h-203q-35 0 -54.5 -54t-19.5 -108q0 -7 -14 -7q-13 0 -19 10q-10 20 -10 90 q0 113 20 146q27 48 49.5 77.5t63.5 53.5t91 24h166q104 0 159 -46.5t55 -130.5q0 -130 -3 -219.5t-22 -173t-33 -133.5t-62.5 -106.5t-82.5 -86.5t-122 -80t-151.5 -80t-199.5 -93q-61 -28 -93 -43q-24 0 -39.5 9.5t-15.5 26.5q0 316 -215 836q-10 23 -16 35.5t-17 24.5 t-22 12q-8 0 -17 -6l-104 -70q-9 -8 -21 -8q-17 0 -29 17t-12 39zM796 531l39 89q4 10 5.5 13.5t6.5 7.5t12 4h20h92q18 0 22 -5t-3 -24l-34 -90q-11 -24 -29 -24h-111q-36 0 -20 29z" />
<glyph unicode="&#xfb39;" horiz-adv-x="651" d="M79 522l39 89q4 10 5.5 13.5t6.5 7.5t12 4h20h92q18 0 22 -5t-3 -24l-34 -90q-11 -24 -29 -24h-111q-36 0 -20 29zM97.5 784q-3.5 8 7.5 19l374 368q17 19 37 18t20 -27v-564q0 -20 -21 -41l-169 -164q-12 -15 -26 -15q-9 0 -12.5 5t-6 30t-2.5 81v343q0 3 -3.5 5.5 t-11.5 3t-20 -4.5q-33 -15 -59.5 -29.5t-37 -21t-23 -10.5t-27.5 -4q-16 0 -19.5 8z" />
<glyph unicode="&#xfb3a;" horiz-adv-x="1118" d="M111 909l254 269q8 8 25 8q8 0 12.5 -2.5t2.5 -7.5l-49 -102q-3 -7 -4 -11.5t0 -7.5t2.5 -4t6 -1.5t8.5 -0.5t11 0.5t13 0.5h509q46 0 66 -27t20 -96v-1297q0 -11 5 -23.5t7 -17t-2 -11.5l-170 -165q-15 -22 -37.5 -15t-22.5 36v1296q0 52 -23 67t-92 15h-482 q-60 22 -60 97zM269 422l39 89q4 10 5.5 13.5t6.5 7.5t12 4h20h92q18 0 22 -5t-3 -24l-34 -90q-11 -24 -29 -24h-111q-36 0 -20 29z" />
<glyph unicode="&#xfb3b;" horiz-adv-x="1202" d="M31 -79q-7 16 11 41l126 179q2 3 6 7.5t6.5 7l6 6t7 5.5t8.5 4t11 3l515 89q34 6 48.5 9t36 10.5t29.5 16.5t17.5 24.5t12 38t2.5 54.5v284q0 78 -18.5 95.5t-98.5 17.5h-552q-60 22 -60 97l254 268q8 9 25 9q8 0 12.5 -2.5t2.5 -7.5l-49 -103q-2 -6 -3.5 -10t-1.5 -6.5 t1.5 -4t3.5 -2.5t6 -1.5t7.5 0t10 0.5h11.5h583q46 0 67 -27t21 -95v-603q0 -40 -27.5 -101.5t-63 -108t-57.5 -50.5l-884 -155q-26 -5 -33 11zM403 482l39 89q4 10 5.5 13.5t6.5 7.5t12 4h20h92q18 0 22 -5t-3 -24l-34 -90q-11 -24 -29 -24h-111q-36 0 -20 29z" />
<glyph unicode="&#xfb3c;" horiz-adv-x="1215" d="M15 1322q1 6 9 15q16 20 64 71t128 135t121 128q21 23 38 18.5t17 -31.5v-526v-5q0 -55 10.5 -66t67.5 -11h31h503q60 0 90.5 -32.5t30.5 -80.5q0 -61 -33 -125q-118 -233 -250.5 -423.5t-302.5 -365.5q-38 -38 -64 -38h-7t-4.5 1.5t-3 4t-0.5 6.5q0 22 16 43 q107 153 196.5 316.5t187.5 395.5q11 23 6.5 41.5t-28.5 18.5h-603q-66 0 -66 50v530l-110 -86q-2 0 -12 0.5t-15 2t-11.5 4.5t-5.5 9zM297 485l39 89q4 10 5.5 13.5t6.5 7.5t12 4h20h92q18 0 22 -5t-3 -24l-34 -90q-11 -24 -29 -24h-111q-36 0 -20 29z" />
<glyph unicode="&#xfb3d;" horiz-adv-x="1382" d="M103 912l332 288q23 23 39 19t16 -31v-92q0 -35 6.5 -42.5t40.5 -7.5h635q32 0 54.5 -12t34 -28.5t17.5 -47t7 -54t1 -63.5v-499q16 0 21 -5.5t1.5 -15.5t-15.5 -28l-134 -194q-10 -16 -74 -28l-892 -177q0 9 9.5 23t21 29t21 42t9.5 58v722q0 28 -7 36t-36 8h-48 q-60 20 -60 100zM475 282q0 -45 6 -59.5t31 -14.5q18 0 51 6l396 70q23 4 33 6t21.5 7.5t14.5 9.5t7 16.5t4 24.5v36v364q0 44 -11.5 54t-57.5 10h-432q-42 0 -52.5 -10t-10.5 -50v-470zM633 483l39 89q4 10 5.5 13.5t6.5 7.5t12 4h20h92q18 0 22 -5t-3 -24l-34 -90 q-11 -24 -29 -24h-111q-36 0 -20 29z" />
<glyph unicode="&#xfb3e;" horiz-adv-x="1445" d="M62.5 776q-3.5 8 7.5 19l374 368q11 12 21.5 16t20 -2t14.5 -23l113 -359l293 299q46 43 101 69t98 26q38 0 57 -21q61 -70 102.5 -137.5t64.5 -122.5t35 -123.5t14.5 -119t2.5 -131.5v-93q0 -50 -14 -72l-155 -251q-10 -17 -35 -21l-1003 -175q-26 -5 -34 11t10 42 l127 177q3 3 7 8.5t7 9t7 7t9.5 6t12.5 3.5l817 141v74q0 184 -20 299t-93 228q-39 61 -72 61q-22 0 -47 -26l-255 -282l11 -33q3 -20 -15 -44l-149 -129q-30 -24 -51 29l-135 341q-1 3 -6.5 5.5t-15 3t-21.5 -4.5q-56 -22 -93.5 -40.5t-48 -26t-20 -11t-24.5 -3.5 q-16 0 -19.5 8zM787 477l39 89q4 10 5.5 13.5t6.5 7.5t12 4h20h92q18 0 22 -5t-3 -24l-34 -90q-11 -24 -29 -24h-111q-36 0 -20 29z" />
<glyph unicode="&#xfb3f;" horiz-adv-x="769" d="M69 417l39 89q4 10 5.5 13.5t6.5 7.5t12 4h20h92q18 0 22 -5t-3 -24l-34 -90q-11 -24 -29 -24h-111q-36 0 -20 29zM222.5 807.5q-3.5 8.5 7.5 18.5l355 346q11 12 24 16.5t22 -1.5t9 -24v-1491q0 -12 5 -24t7 -16.5t-2 -11.5l-188 -193q-15 -22 -36.5 -14t-21.5 35v1393 q0 3 -3.5 5t-11 3t-19.5 -4q-100 -47 -116 -47q-2 0 -5.5 0.5t-6.5 0.5q-16 0 -19.5 8.5z" />
<glyph unicode="&#xfb40;" horiz-adv-x="673" d="M49 -34.5q-7 15.5 11 41.5l125 179q31 29 45 32l167 30l-66 608q0 4 -35 4q-55 -22 -95.5 -41.5t-54 -27t-25.5 -12t-27 -4.5q-16 0 -19.5 8.5t7.5 18.5l374 368q15 21 33.5 18.5t22.5 -30.5l135 -879q4 -21 -12 -44l-143 -207q-6 -9 -201 -41t-209 -32q-26 -5 -33 10.5z M62 478l39 89q4 10 5.5 13.5t6.5 7.5t12 4h20h92q18 0 22 -5t-3 -24l-34 -90q-11 -24 -29 -24h-111q-36 0 -20 29z" />
<glyph unicode="&#xfb41;" horiz-adv-x="1391" d="M103 910l331 289q22 23 39 19t17 -31v-95q0 -32 5.5 -37t40.5 -5h634q32 0 54.5 -12.5t34.5 -30t18 -48.5t7.5 -55.5t1.5 -63.5v-30q0 -313 -157 -497q-164 -191 -475 -365q-52 -29 -101 -36.5t-126 -7.5q-25 0 -33 7t-11 32l-116 825q-4 30 -11 36t-35 6h-58 q-60 21 -60 100zM482 773q0 -14 3 -35l71 -526q5 -41 16.5 -51t61.5 -10q380 138 380 483v51q0 45 -6.5 71.5t-23.5 37.5t-31.5 13.5t-43.5 2.5h-6h-338q-52 0 -67.5 -6t-15.5 -31zM652 481l39 89q4 10 5.5 13.5t6.5 7.5t12 4h20h92q18 0 22 -5t-3 -24l-34 -90 q-11 -24 -29 -24h-111q-36 0 -20 29z" />
<glyph unicode="&#xfb42;" horiz-adv-x="1629" d="M27 -152q0 16 32 68l72 120q34 56 54 73.5t81 41.5q85 31 194 80q36 16 52 33.5t16 44.5q0 26 -19 77l-186 486q0 2 -8 6.5t-19.5 6.5t-24.5 -3q-26 -13 -51.5 -27t-35 -19t-21.5 -8.5t-26 -3.5q-16 0 -19.5 8t7.5 19l276 289q34 37 58 37q16 0 24 -17q59 -127 102 -233 t68 -176.5t87 -252.5q25 -74 51 -74q21 0 67 56q97 118 129.5 206t32.5 215q-14 10 -17 12.5t-8 10.5t-1.5 15t14.5 18l156 153l5 5t5.5 5t5 4t5.5 4t5.5 3t6.5 2.5t7 1t8 0.5l309 -202q2 -2 7.5 -5.5t7.5 -4.5t6 -4t5.5 -4.5t4 -4.5t2.5 -5t0.5 -5t-1 -6t-3.5 -6t-6 -7 l-166 -166q-13 -16 -38 -16l-106 56q-10 10 -19 10q-28 0 -54 -102q-23 -87 -57.5 -163.5t-69.5 -135t-90 -112.5t-96.5 -90.5t-113 -75t-115.5 -60t-128 -51.5t-126.5 -43t-133.5 -41q-63 -19 -95 -29q-77 -24 -95 -24q-14 0 -14 10zM729 696l39 89q4 10 5.5 13.5t6.5 7.5 t12 4h20h92q18 0 22 -5t-3 -24l-34 -90q-11 -24 -29 -24h-111q-36 0 -20 29z" />
<glyph unicode="&#xfb43;" horiz-adv-x="1212" d="M124 317v500q0 20 26 48l122 124q30 29 41.5 38t35.5 16t63 7h576q47 0 69 -27.5t22 -95.5v-1310q0 -6 4.5 -15t6.5 -13.5t-2 -10.5l-170 -165q-12 -16 -29 -16q-13 0 -22.5 10t-9.5 27v1263q0 80 -19 96.5t-104 16.5h-310q-55 0 -68 -17t-13 -74v-256l128 44 q21 6 28.5 -8.5t-8.5 -43.5l-107 -170q-19 -25 -44 -33q-70 -27 -118 -27q-30 0 -64 32.5t-34 59.5zM546 333l39 89q4 10 5.5 13.5t6.5 7.5t12 4h20h92q18 0 22 -5t-3 -24l-34 -90q-11 -24 -29 -24h-111q-36 0 -20 29z" />
<glyph unicode="&#xfb44;" horiz-adv-x="1222" d="M28 -102q-7 16 11 41l126 180q2 2 6.5 7t6.5 7t6 5.5t7.5 5.5t8 4t10.5 3l634 117q70 12 91.5 28t21.5 68q0 24 -5 72l-29 258q-4 33 -6.5 50.5t-10.5 33t-14 21.5t-25.5 10t-35.5 4.5t-53 0.5h-255q-72 0 -88 -13.5t-16 -71.5v-123q0 -42 6.5 -57.5t30.5 -15.5 q13 0 29 3l108 20q23 5 30.5 -11t-10.5 -40l-142 -181q-12 -15 -39 -18l-138 -21q-27 0 -62.5 33.5t-35.5 59.5v445q0 10 1.5 18.5t5.5 17t6.5 14t9 13t8.5 10t9 9.5l8 7l242 257q17 19 38 19q20 0 8 -23l-40 -79q-12 -27 -9.5 -32.5t29.5 -5.5h512q44 0 62 -23.5t26 -92.5 l74 -602q0 -39 -54.5 -148t-86.5 -115l-984 -180q-26 -5 -33 11zM659 390l39 89q4 10 5.5 13.5t6.5 7.5t12 4h20h92q18 0 22 -5t-3 -24l-34 -90q-11 -24 -29 -24h-111q-36 0 -20 29z" />
<glyph unicode="&#xfb45;" horiz-adv-x="1378" d="M68.5 832.5q-3.5 9.5 7.5 19.5l300 304q32 35 72 35q26 0 30 -19q6 -30 25 -123t35 -174.5t21 -114.5q6 -38 12 -52t18 -14q19 0 50.5 21t63.5 55.5t55 87.5t23 108q0 5 -1 16.5t-1 18.5t2 9l157 153q1 1 5.5 6t5.5 5.5t5.5 4.5t6.5 4.5t6.5 2.5t8.5 2.5t9 0.5l310 -202 q2 -1 8 -5.5l8 -6t6.5 -5t5.5 -5t3.5 -5t2 -6t-1 -6t-3 -7t-6.5 -7.5l-166 -165q-13 -16 -39 -16l-188 112q0 -33 -53 -89.5t-111.5 -102t-118.5 -85.5q-17 -11 -24 -17.5t-13.5 -20.5t-6.5 -34q0 -11 9.5 -81t19 -213t9.5 -331q0 -38 -0.5 -118t-0.5 -123q0 -17 -19 -40 l-128 -157q-11 -14 -27 -14q-12 0 -16.5 25t-4.5 91v139q0 176 -4.5 303.5t-18 289t-45.5 308t-82 277.5q0 2 -7 5t-17.5 4t-23.5 -4q-31 -12 -57 -23t-38 -16t-20.5 -9t-12 -5t-5.5 -1h-21q-16 0 -19.5 9.5zM524 1028l39 89q4 10 5.5 13.5t6.5 7.5t12 4h20h92q18 0 22 -5 t-3 -24l-34 -90q-11 -24 -29 -24h-111q-36 0 -20 29z" />
<glyph unicode="&#xfb46;" horiz-adv-x="1608" d="M74.5 814.5q-3.5 9.5 7.5 19.5l264 276q33 35 53 35q14 0 29 -15l359 -366q48 -51 73 -51q16 0 37 33q23 40 35.5 100t12.5 109q-26 18 -28 26q-4 12 15 29l157 153q1 1 5.5 6t5.5 5.5t5.5 4.5t6.5 4.5t6.5 2.5t8.5 2.5t9 0.5l367 -249q30 -20 32 -28q3 -11 -10 -24 l-166 -165q-14 -17 -38 -17l-264 187q0 -46 -17 -111t-45 -112q-3 -5 -9.5 -16t-9 -15.5t-6.5 -12t-5.5 -12t-3 -10t-1.5 -10.5q0 -23 37 -63l250 -271q5 -5 5 -15q0 -38 -66.5 -107.5t-121.5 -81.5q-15 -4 -167.5 -32.5t-419 -78.5t-402.5 -76q24 52 104 176t106 139 l498 76q42 11 42 34q0 4 -1.5 9t-3.5 9t-6.5 10t-7.5 9.5t-9 10t-9 9.5l-10.5 10.5l-9.5 9.5l-485 484q0 3 -3.5 5.5t-11.5 3t-20 -4.5q-31 -12 -57 -23t-38 -16t-20.5 -9t-12 -5t-5.5 -1h-21q-16 0 -19.5 9.5zM305 420l39 89q4 10 5.5 13.5t6.5 7.5t12 4h20h92q18 0 22 -5 t-3 -24l-34 -90q-11 -24 -29 -24h-111q-36 0 -20 29z" />
<glyph unicode="&#xfb47;" horiz-adv-x="1488" d="M97 910l412 289q23 23 39.5 18.5t16.5 -31.5v-74q0 -41 11.5 -51.5t42.5 -10.5h22h711q55 0 55 -68q0 -102 -49 -172l-461 -669q-23 -27 -80.5 -49.5t-91.5 -22.5q-17 0 -13 13q39 46 79 101.5t68 98t69 114.5t59.5 106t64 119t58.5 110q9 17 9 31q0 22 -19.5 35 t-54.5 13h-381q-68 0 -83.5 -17t-15.5 -83v-1022q0 -16 -23 -39l-165 -164q-23 -20 -33.5 -14t-10.5 34v1211q0 57 -14.5 75.5t-70.5 18.5h-91q-60 21 -60 100zM683 483l39 89q4 10 5.5 13.5t6.5 7.5t12 4h20h92q18 0 22 -5t-3 -24l-34 -90q-11 -24 -29 -24h-111 q-36 0 -20 29z" />
<glyph unicode="&#xfb48;" horiz-adv-x="1173" d="M116 909l254 269q8 8 26 8t14 -10l-49 -102q-3 -7 -4 -11.5t-0.5 -7.5t1.5 -4t5 -1.5t7.5 -0.5t10.5 0.5t13 0.5h580q46 0 68 -27t22 -95v-712q0 -46 -19 -67l-157 -177q-14 -17 -26 -17q-16 0 -16 59v670v42t-2.5 31t-4 23.5t-10 14.5t-13.5 9.5t-22 4t-29 2.5h-39h-550 q-60 22 -60 98zM358 420l39 89q4 10 5.5 13.5t6.5 7.5t12 4h20h92q18 0 22 -5t-3 -24l-34 -90q-11 -24 -29 -24h-111q-36 0 -20 29z" />
<glyph unicode="&#xfb49;" horiz-adv-x="2063" d="M103 865q0 22 15 37q140 135 158 151l115 100q19 24 49 24q23 0 32 -20q43 -101 136.5 -296t110.5 -231q4 -9 10 -22t8.5 -18.5t6 -12t6.5 -9t6 -2.5q10 0 42 42q19 25 34.5 112.5t15.5 149.5q-1 1 -14.5 12.5t-20 18.5t-13.5 18t-7 20q0 12 9 20l156 153l3 3 q23 23 45 23l310 -203q3 -2 9.5 -6.5t8.5 -6t6.5 -5t5.5 -5.5t2.5 -6t0.5 -7t-3.5 -7t-7.5 -8l-166 -167q-14 -16 -39 -16l-206 142q0 -65 -29.5 -202t-49.5 -167q-28 -45 -28 -59t20 -57l40 -86q11 -24 19.5 -34t20.5 -10q13 0 43 14q88 42 205 157t201 240.5t84 193.5 q0 19 -4 53q-25 19 -27 25q-6 12 13 30l157 153q10 10 14 13.5t13.5 8t21.5 4.5l309 -204q3 -2 8.5 -5.5t7.5 -5.5t6.5 -5t5.5 -5t3 -5t1.5 -5.5t-1 -5.5t-3 -6.5t-6.5 -7.5l-166 -166q-15 -17 -38 -17l-139 74q-10 10 -18 10q-20 0 -43.5 -34t-30.5 -66 q-26 -38 -71.5 -106.5t-77 -116.5t-80 -113.5t-88.5 -110.5t-93.5 -94.5t-103.5 -79t-111.5 -49t-123.5 -19.5q-7 0 -11.5 0.5t-9 2.5t-7 3t-7 5.5t-6 6.5t-6.5 9t-8 10q-1 1 -46.5 103t-85 188t-94.5 203t-105 216.5t-87 161.5q-6 10 -12 14t-12 2.5t-9.5 -4t-7.5 -6.5 l-5 -5l-103 -70q-10 -7 -21 -7q-18 0 -30 16.5t-12 38.5zM984 477l39 89q4 10 5.5 13.5t6.5 7.5t12 4h20h92q18 0 22 -5t-3 -24l-34 -90q-11 -24 -29 -24h-111q-36 0 -20 29z" />
<glyph unicode="&#xfb4a;" horiz-adv-x="1609" d="M27 13q-4 16 19 39l154 155q4 3 14 10t17.5 10.5t18.5 3.5h53q44 0 54.5 12t10.5 63v441q0 36 -8.5 46.5t-46.5 10.5h-39q-61 22 -61 105l332 289q22 23 38.5 19t16.5 -31v-86q0 -34 8.5 -42t34.5 -8h21h426h16q51 0 70.5 7.5t53.5 42.5l112 115q22 23 38.5 18t16.5 -31 v-158h154q27 0 35 -15t-12 -37l-118 -120q-38 -45 -48.5 -71t-10.5 -83v-556q0 -7 -4 -13t-14 -14.5t-12 -10.5l-169 -164q-19 -20 -27.5 -13.5t-8.5 34.5v717q0 76 -15.5 94t-79.5 18h-405q-44 0 -53.5 -10.5t-9.5 -50.5v-534q0 -18 -21 -39l-184 -179h-336q-27 0 -31 16z M754 420l39 89q4 10 5.5 13.5t6.5 7.5t12 4h20h92q18 0 22 -5t-3 -24l-34 -90q-11 -24 -29 -24h-111q-36 0 -20 29z" />
<glyph unicode="&#xfb4b;" horiz-adv-x="611" d="M63.5 785.5q-3.5 8.5 7.5 18.5l374 368q11 12 24 16t22.5 -2.5t9.5 -22.5v-991q0 -22 -18 -40l-168 -165q-11 -14 -27 -14q-8 0 -12 4.5t-6.5 30.5t-2.5 81v781q0 3 -3 5t-10.5 3t-19.5 -4q-45 -18 -74 -34.5t-37 -24.5t-17 -13t-23 -5q-16 0 -19.5 8.5zM381 1305l39 89 q4 10 5.5 13.5t6.5 7.5t12 4h20h92q18 0 22 -5t-3 -24l-34 -90q-11 -24 -29 -24h-111q-36 0 -20 29z" />
<glyph unicode="&#xfb4c;" horiz-adv-x="1301" d="M34.5 -100q-7.5 15 10.5 41l128 179q2 2 6.5 8t7 8.5t7.5 6.5t10 6.5t12 3.5l546 99q57 13 73.5 37.5t16.5 82.5v348q0 31 -2 44.5t-11.5 27t-29.5 17.5t-56 4h-539q-61 22 -61 99l255 268q7 9 26 9q8 0 12 -3t2 -7l-50 -103q-6 -20 -1.5 -23t27.5 -3h10h549 q46 0 67.5 -27t21.5 -95v-524q0 -49 8.5 -67.5t35.5 -18.5q6 0 32 4l94 18q26 5 35.5 -9.5t-6.5 -38.5l-132 -195q-9 -16 -36 -22l-1036 -186q-25 -4 -32.5 11zM512 1220l38 89q1 2 3 6.5t3 6l3 4.5t4 4t4.5 2t6.5 1h379q18 0 22 -5t-3 -24l-34 -90q-11 -24 -29 -24h-377 q-36 0 -20 30z" />
<glyph unicode="&#xfb4d;" horiz-adv-x="1203" d="M31 -79q-7 16 11 41l126 179q2 3 6 7.5t6.5 7l6 6t7 5.5t8.5 4t11 3l515 89q34 6 48.5 9t36 10.5t29.5 16.5t17.5 24.5t12 38t2.5 54.5v284q0 78 -18.5 95.5t-98.5 17.5h-552q-60 22 -60 97l254 268q8 9 25 9q8 0 12.5 -2.5t2.5 -7.5l-49 -103q-2 -6 -3.5 -10t-1.5 -6.5 t1.5 -4t3.5 -2.5t6 -1.5t7.5 0t10 0.5h11.5h583q46 0 67 -27t21 -95v-603q0 -40 -27.5 -101.5t-63 -108t-57.5 -50.5l-884 -155q-26 -5 -33 11zM511 1216l38 89q1 2 3 6.5t3 6l3 4.5t4 4t4.5 2t6.5 1h379q18 0 22 -5t-3 -24l-34 -90q-11 -24 -29 -24h-377q-36 0 -20 30z" />
<glyph unicode="&#xfb4e;" horiz-adv-x="1223" d="M28 -102q-7 16 11 41l126 180q2 2 6.5 7t6.5 7t6 5.5t7.5 5.5t8 4t10.5 3l634 117q70 12 91.5 28t21.5 68q0 24 -5 72l-29 258q-4 33 -6.5 50.5t-10.5 33t-14 21.5t-25.5 10t-35.5 4.5t-53 0.5h-255q-72 0 -88 -13.5t-16 -71.5v-123q0 -42 6.5 -57.5t30.5 -15.5 q13 0 29 3l108 20q23 5 30.5 -11t-10.5 -40l-142 -181q-12 -15 -39 -18l-138 -21q-27 0 -62.5 33.5t-35.5 59.5v445q0 10 1.5 18.5t5.5 17t6.5 14t9 13t8.5 10t9 9.5l8 7l242 257q17 19 38 19q20 0 8 -23l-40 -79q-12 -27 -9.5 -32.5t29.5 -5.5h512q44 0 62 -23.5t26 -92.5 l74 -602q0 -39 -54.5 -148t-86.5 -115l-984 -180q-26 -5 -33 11zM602 1212l38 89q1 2 3 6.5t3 6l3 4.5t4 4t4.5 2t6.5 1h379q18 0 22 -5t-3 -24l-34 -90q-11 -24 -29 -24h-377q-36 0 -20 30z" />
<glyph unicode="&#xfb4f;" horiz-adv-x="1529" d="M16 1358.5q1 6.5 8 15.5q37 43 313 334q20 4 39 4q23 0 38 -6.5t21 -19.5t7.5 -23.5t1.5 -25.5v-14v-426v-22q0 -61 10 -83.5t56 -68.5l321 -315q39 27 63.5 110t24.5 150q-1 1 -6.5 5t-6.5 5t-5 4.5t-5 4.5t-3 4.5t-1.5 5.5t0.5 5t2 6t5 7t7 8l157 153l14 14t13.5 8 t20.5 4l309 -203q3 -2 9.5 -6.5t9 -6t7 -5t5.5 -5.5t2.5 -6t0.5 -7t-3.5 -7t-7.5 -8l-167 -166q-13 -17 -39 -17l-206 142q0 -71 -38.5 -172.5t-82.5 -126.5l392 -392q0 -26 -16 -39l-123 -157q-9 -9 -16 -9t-14 6t-22 23l-864 890q-35 55 -35 90v342q0 34 -2 46.5 t-11.5 12.5t-43.5 -20l-96 -58q-2 0 -11.5 0.5t-15 2t-11.5 4t-5 9z" />
</font>
</defs>
</svg>
